<?xml version="1.0" standalone="no"?>
<!DOCTYPE svg PUBLIC "-//W3C//DTD SVG 20010904//EN"
 "http://www.w3.org/TR/2001/REC-SVG-20010904/DTD/svg10.dtd">
<svg version="1.0" xmlns="http://www.w3.org/2000/svg"
 width="1024.000000pt" height="1024.000000pt" viewBox="0 0 1024.000000 1024.000000"
 preserveAspectRatio="xMidYMid meet">

<g transform="translate(0.000000,1024.000000) scale(0.100000,-0.100000)"
fill="#000000" stroke="none">
<path d="M2870 7871 c-25 -4 -51 -10 -58 -14 -10 -7 -12 -554 -10 -2735 l3
-2727 604 -3 c537 -2 606 0 622 14 14 13 58 74 176 247 20 28 117 169 211 305
17 26 56 82 85 124 28 43 79 115 112 161 33 46 65 90 70 99 17 28 148 219 195
285 25 34 52 63 60 63 16 0 51 -59 218 -370 57 -107 120 -224 140 -260 49 -89
82 -153 165 -310 38 -74 87 -164 107 -200 20 -36 46 -86 59 -113 l23 -47 886
2 887 3 3 338 2 339 -52 86 c-29 48 -56 93 -61 102 -20 40 -130 247 -186 350
-70 129 -91 168 -101 190 -7 15 -70 133 -123 230 -17 30 -37 69 -44 85 -8 17
-19 37 -24 45 -5 8 -19 33 -30 55 -11 22 -36 69 -56 105 -19 36 -46 86 -59
111 -13 26 -31 52 -39 59 -8 7 -15 20 -15 29 0 17 -4 25 -65 136 -37 68 -124
232 -182 345 -16 30 -67 128 -113 217 l-84 162 60 86 c32 48 67 100 77 117 10
18 39 57 63 89 24 32 44 60 44 63 0 4 23 37 50 75 28 38 50 72 50 76 0 4 15
25 34 48 18 23 41 56 50 72 26 45 82 128 104 150 18 19 57 72 77 106 10 17 97
143 160 234 83 117 151 218 169 248 11 18 39 57 61 87 23 30 55 75 70 100 15
25 59 86 97 137 l68 91 -2 358 -3 357 -794 1 -794 1 -16 -27 c-17 -29 -118
-181 -221 -333 -34 -49 -93 -138 -131 -197 -39 -58 -85 -123 -103 -144 l-32
-37 -44 69 c-79 125 -146 228 -186 288 -21 33 -47 74 -56 92 -26 49 -144 236
-165 261 l-18 22 -975 4 c-536 3 -995 2 -1020 -2z m1617 -363 c20 -21 388
-581 412 -627 l12 -21 -359 0 -359 0 -459 328 -459 327 585 5 c322 3 590 6
596 8 6 1 20 -8 31 -20z m2583 14 c0 -5 -33 -53 -73 -108 -40 -54 -117 -162
-171 -239 -55 -77 -136 -192 -181 -255 -45 -63 -157 -222 -248 -352 -91 -130
-262 -371 -380 -535 -117 -164 -249 -347 -292 -408 -77 -108 -173 -240 -866
-1195 -403 -554 -645 -891 -777 -1080 -52 -74 -144 -204 -204 -287 l-109 -153
-310 0 c-170 0 -309 3 -309 6 0 9 346 488 669 925 47 64 151 205 231 314 336
456 541 734 838 1135 174 234 332 448 352 475 20 28 68 93 106 145 39 52 73
100 77 106 4 7 -27 34 -78 68 -47 31 -85 59 -85 64 0 4 42 64 93 133 166 227
220 302 327 454 100 141 402 563 519 723 l53 72 409 0 c225 0 409 -4 409 -8z
m-3405 -815 c126 -88 260 -182 298 -209 l67 -50 0 -821 0 -822 -156 -215 c-86
-118 -188 -260 -227 -315 -110 -154 -267 -364 -277 -370 -7 -4 -10 539 -10
1500 l0 1507 37 -22 c21 -12 141 -94 268 -183z m885 -376 c214 -146 390 -273
390 -283 0 -5 -49 -78 -108 -161 -60 -84 -169 -236 -241 -339 -73 -103 -139
-192 -147 -199 -12 -10 -14 65 -14 525 0 427 3 536 13 530 6 -4 55 -37 107
-73z m1443 -1731 c85 -162 245 -466 356 -675 442 -828 531 -997 531 -1010 0
-3 -197 -4 -437 -3 l-437 3 -98 180 c-141 256 -530 978 -566 1051 l-31 61 92
130 c51 71 164 231 252 356 124 175 163 223 172 214 7 -7 81 -145 166 -307z"/>
</g>
</svg>
