<?xml version="1.0" standalone="no"?>
<!DOCTYPE svg PUBLIC "-//W3C//DTD SVG 20010904//EN"
 "http://www.w3.org/TR/2001/REC-SVG-20010904/DTD/svg10.dtd">
<svg version="1.0" xmlns="http://www.w3.org/2000/svg"
 width="1792.000000pt" height="1024.000000pt" viewBox="0 0 1792.000000 1024.000000"
 preserveAspectRatio="xMidYMid meet">

<g transform="translate(0.000000,1024.000000) scale(0.100000,-0.100000)"
fill="#000000" stroke="none">
<path d="M3678 9290 c-2 -7 -79 -12 -203 -14 -253 -5 -235 -3 -235 -21 0 -11
-11 -15 -39 -15 -80 0 -161 -13 -161 -26 0 -7 -18 -15 -40 -19 -23 -4 -40 -12
-40 -20 0 -8 -16 -16 -40 -19 -22 -3 -58 -9 -80 -12 -43 -6 -55 -23 -17 -25
13 -1 4 -6 -20 -12 -24 -5 -43 -16 -43 -23 0 -7 -18 -15 -39 -19 -22 -4 -42
-13 -45 -20 -3 -8 -21 -17 -40 -21 -20 -3 -36 -12 -36 -19 0 -8 -17 -16 -40
-20 -23 -4 -40 -12 -40 -20 0 -8 -17 -16 -40 -20 -25 -4 -40 -12 -40 -21 0
-14 -5 -16 -45 -18 -11 -1 -20 -8 -20 -17 0 -22 -30 -49 -63 -58 -16 -5 -26
-14 -26 -24 1 -10 -6 -18 -17 -18 -40 -3 -44 -5 -43 -21 1 -10 -7 -20 -17 -23
-11 -4 -24 -15 -29 -26 -6 -10 -20 -19 -30 -19 -13 0 -20 -7 -20 -20 0 -11 -7
-20 -15 -20 -8 0 -15 -5 -15 -10 0 -6 -11 -15 -25 -20 -14 -5 -25 -16 -25 -24
0 -7 -9 -16 -20 -19 -11 -3 -20 -12 -20 -20 0 -8 -9 -17 -20 -20 -11 -3 -20
-12 -20 -21 0 -9 -7 -16 -15 -16 -9 0 -20 -11 -25 -25 -5 -14 -14 -25 -20 -25
-5 0 -10 -6 -10 -14 0 -7 -10 -21 -22 -29 -21 -14 -21 -16 -4 -16 16 -1 16 -3
-5 -20 -14 -11 -26 -15 -30 -9 -7 11 -79 -85 -79 -106 0 -8 -9 -18 -20 -21
-11 -3 -20 -14 -20 -24 0 -9 -18 -35 -41 -56 -26 -26 -38 -46 -35 -58 4 -15
-1 -17 -42 -13 -56 6 -39 -1 103 -39 115 -30 251 -86 380 -156 529 -284 821
-794 861 -1504 14 -258 -47 -637 -144 -896 -38 -100 -111 -268 -132 -299 -5
-8 -23 -40 -41 -70 -17 -30 -46 -73 -63 -95 -18 -22 -42 -56 -53 -75 -12 -19
-37 -49 -55 -67 -18 -18 -41 -40 -50 -50 -30 -32 -77 -73 -82 -73 -3 0 -6 7
-6 15 0 13 -20 15 -120 15 -113 0 -120 -1 -120 -20 0 -19 -7 -20 -160 -20
l-160 0 0 -40 c0 -33 -3 -40 -19 -40 -18 0 -20 9 -23 88 -2 52 2 107 10 137 7
28 17 69 22 92 5 22 32 101 61 175 58 150 88 256 89 308 0 138 -62 95 -135
-93 -27 -67 -69 -165 -95 -217 -26 -52 -66 -140 -89 -195 -24 -55 -47 -108
-52 -118 -6 -10 -7 -32 -4 -48 4 -16 5 -30 4 -31 -1 -2 3 -13 9 -25 7 -12 14
-46 17 -75 12 -117 27 -236 36 -283 5 -27 11 -66 14 -85 11 -97 30 -190 37
-190 4 0 8 -42 9 -92 0 -89 1 -92 14 -58 10 25 14 29 14 14 1 -31 10 -35 42
-19 15 8 58 23 96 33 l68 17 7 45 c5 25 7 54 5 65 -2 11 -7 -2 -11 -30 -5 -27
-16 -57 -25 -66 -20 -19 -81 -21 -81 -2 0 7 -4 13 -10 13 -5 0 -10 18 -10 40
0 22 -4 40 -10 40 -5 0 -10 9 -10 20 0 26 -16 26 -23 -1 -5 -18 -8 -19 -20 -8
-11 10 -12 16 -3 22 8 6 8 10 -1 14 -29 11 -6 139 41 227 20 37 66 94 66 81 0
-2 37 12 83 33 79 35 87 37 196 37 l114 0 110 115 c127 133 262 308 342 444
51 87 72 130 126 254 l19 43 60 -31 60 -30 0 -571 0 -571 69 -69 68 -68 13 42
c16 53 75 172 106 213 l24 31 0 495 c0 380 3 498 13 511 6 9 46 29 87 45 l75
28 12 94 c56 423 318 748 709 879 250 84 533 57 772 -75 35 -19 67 -32 72 -29
16 10 109 180 154 281 89 202 157 460 160 606 0 42 4 71 8 65 4 -7 8 53 8 133
0 89 -4 140 -9 131 -6 -9 -9 35 -9 112 0 103 -3 129 -16 142 -18 18 -22 40 -6
30 6 -3 10 1 10 9 0 10 -6 13 -15 10 -17 -7 -21 21 -5 31 6 3 10 12 10 18 0 8
-3 8 -9 -1 -6 -10 -10 -6 -14 15 -3 15 -1 29 3 31 5 2 -1 20 -14 40 -13 21
-27 53 -31 72 -4 18 -19 63 -32 99 -14 36 -27 77 -30 91 -5 29 -35 90 -43 90
-3 0 -12 16 -19 35 -7 19 -18 40 -24 47 -7 7 -21 31 -31 53 -11 22 -30 54 -42
71 -13 16 -33 51 -44 77 -12 26 -25 47 -30 47 -5 0 -11 9 -15 20 -7 21 -17 32
-194 213 -62 65 -116 117 -120 117 -3 0 -23 16 -43 36 -40 37 -216 134 -246
134 -23 1 -111 49 -92 51 8 0 2 5 -15 9 -83 23 -113 30 -142 30 -21 0 -33 5
-33 14 0 14 -79 26 -181 26 -33 0 -59 4 -59 10 0 13 -37 13 -42 0z m-751
-4262 c-2 -18 -4 -4 -4 32 0 36 2 50 4 33 2 -18 2 -48 0 -65z m0 -100 c-3 -7
-5 -2 -5 12 0 14 2 19 5 13 2 -7 2 -19 0 -25z m0 -465 c-1 -43 -3 -10 -3 72 0
83 2 118 3 78 2 -40 2 -107 0 -150z m5 -205 c2 -36 0 -64 -4 -61 -5 2 -7 46
-6 96 1 95 5 81 10 -35z"/>
<path d="M14434 8843 c-67 -51 -73 -56 -94 -75 -11 -10 -26 -15 -35 -12 -8 4
-15 1 -15 -4 0 -12 -61 -45 -68 -37 -3 3 1 5 8 5 7 0 11 3 8 6 -4 3 -24 -6
-47 -20 -22 -14 -45 -26 -51 -26 -6 0 -28 -11 -48 -25 -20 -14 -47 -25 -59
-25 -13 0 -23 -4 -23 -8 0 -14 -73 -40 -140 -48 -98 -13 -343 -9 -348 5 -2 6
-21 11 -43 11 -36 0 -39 -2 -39 -28 0 -27 -4 -30 -55 -41 l-55 -12 0 -40 c0
-35 -3 -39 -25 -39 -16 0 -25 -6 -25 -15 0 -8 -4 -15 -10 -15 -5 0 -10 -9 -10
-20 0 -11 -4 -20 -10 -20 -5 0 -10 -9 -10 -20 0 -13 -7 -20 -20 -20 -13 0 -20
-7 -20 -20 0 -13 -7 -20 -20 -20 -18 0 -20 -7 -20 -60 0 -53 -2 -60 -20 -60
-13 0 -20 -7 -20 -20 0 -13 -7 -20 -20 -20 -13 0 -20 -7 -20 -20 0 -13 -7 -20
-20 -20 -13 0 -20 -7 -20 -20 0 -16 -7 -20 -35 -20 -30 0 -35 -3 -35 -24 0
-20 -6 -24 -41 -30 -22 -4 -45 -4 -50 0 -6 3 -13 -3 -16 -15 -4 -18 -13 -21
-54 -21 -36 0 -49 -4 -49 -14 0 -9 -15 -17 -40 -21 -22 -4 -40 -12 -40 -20 0
-12 -42 -25 -85 -25 -14 0 -25 -7 -28 -20 -4 -15 -14 -20 -40 -20 -20 0 -39
-4 -42 -10 -3 -5 -13 -10 -21 -10 -8 0 -23 -9 -34 -20 -11 -11 -31 -20 -45
-20 -15 0 -25 -6 -25 -14 0 -8 -10 -16 -22 -18 -13 -2 -22 -9 -20 -16 1 -7
-11 -15 -28 -19 -17 -3 -35 -14 -40 -24 -6 -10 -33 -44 -61 -76 -59 -67 -140
-214 -163 -296 -26 -90 -60 -114 -114 -81 -48 30 -84 83 -115 172 -30 83 -31
95 -32 242 0 204 27 308 121 458 l35 57 -40 -42 c-23 -23 -41 -40 -41 -37 0
10 -82 -41 -99 -61 -24 -30 -128 -115 -140 -115 -5 0 -14 -6 -18 -14 -13 -23
-100 -86 -118 -86 -9 0 -19 -8 -22 -19 -5 -20 -42 -41 -73 -41 -11 0 -20 -4
-20 -9 0 -5 -31 -32 -68 -60 -83 -61 -116 -99 -148 -171 -81 -176 -77 -171
-98 -152 -19 17 -19 16 -1 -10 35 -56 139 -118 260 -158 63 -21 78 -32 150
-105 58 -60 98 -91 145 -113 138 -67 140 -67 624 -68 l440 0 46 -110 c26 -60
68 -162 94 -226 58 -142 118 -235 233 -363 161 -179 244 -279 340 -415 97
-136 183 -252 306 -412 l66 -88 11 43 c23 86 21 83 36 56 19 -34 18 -85 -2
-93 -11 -4 -15 -14 -12 -30 4 -17 1 -23 -9 -19 -10 4 -13 -8 -13 -48 0 -30 -3
-65 -6 -79 -3 -14 5 -2 19 25 13 28 47 72 75 99 38 37 51 59 56 88 5 27 20 54
50 86 l43 47 8 720 c4 396 8 721 9 723 2 1 253 1 558 0 l555 -3 -38 -103 c-21
-57 -48 -144 -60 -195 -109 -474 -134 -550 -220 -664 l-38 -51 32 -25 c18 -14
47 -51 64 -82 l30 -57 53 74 c141 192 174 270 230 533 17 83 42 200 55 260 14
63 42 153 67 210 l43 100 495 5 495 6 80 28 c44 15 102 40 130 54 64 35 178
141 171 159 -3 8 -2 11 4 8 5 -3 14 4 20 16 8 15 9 19 1 15 -14 -9 -14 4 -1
24 8 12 10 12 10 1 0 -8 3 -11 6 -8 4 4 2 13 -5 21 -7 9 -8 15 -2 18 14 4 15
71 2 151 -6 37 -15 97 -21 134 -5 37 -14 69 -19 72 -5 3 -12 23 -16 44 -5 27
-12 37 -26 37 -12 0 -19 7 -19 19 0 11 -9 23 -20 26 -11 3 -20 13 -20 21 0 8
-4 14 -10 14 -5 0 -10 6 -10 14 0 8 -10 18 -22 22 -11 3 -39 24 -60 45 -22 22
-44 39 -49 39 -5 0 -9 9 -9 20 0 13 -7 20 -20 20 -13 0 -20 7 -20 20 0 13 -7
20 -20 20 -13 0 -20 7 -20 20 0 13 -7 20 -20 20 -13 0 -20 7 -20 20 0 13 -7
20 -20 20 -13 0 -20 7 -20 20 0 13 -7 20 -20 20 -13 0 -20 7 -20 20 0 13 -7
20 -20 20 -13 0 -20 7 -20 20 0 18 -7 20 -60 20 -53 0 -60 2 -60 20 0 17 -7
20 -40 20 -33 0 -40 3 -40 20 0 17 -7 20 -40 20 -33 0 -40 3 -40 20 0 18 -7
20 -80 20 -73 0 -80 2 -80 20 0 18 -7 20 -60 20 -53 0 -60 2 -60 20 0 18 -7
20 -60 20 -53 0 -60 2 -60 20 0 18 -7 20 -80 20 -64 0 -80 3 -80 15 0 12 -18
15 -100 15 -76 0 -100 -3 -100 -13 0 -26 -45 -57 -83 -57 -30 0 -37 -4 -37
-20 0 -18 -7 -20 -60 -20 -33 0 -60 -4 -60 -10 0 -5 -9 -10 -20 -10 -11 0 -20
-4 -20 -10 0 -5 -13 -10 -29 -10 -48 0 -91 -12 -91 -25 0 -13 -43 -25 -86 -25
-17 0 -24 -6 -24 -20 0 -15 -7 -20 -25 -20 -15 0 -25 -6 -25 -15 0 -13 -55
-35 -88 -35 -7 0 -21 -7 -29 -16 -12 -12 -27 -14 -57 -10 -105 16 -226 -3
-226 -34 0 -6 -9 -10 -20 -10 -11 0 -20 -7 -20 -15 0 -8 -8 -15 -18 -15 -10 0
-24 -9 -32 -20 -8 -11 -22 -20 -32 -20 -10 0 -18 -4 -18 -9 0 -5 -21 -31 -46
-58 -40 -41 -91 -130 -98 -170 -3 -16 -50 -53 -68 -53 -21 0 -38 -21 -38 -46
0 -14 -8 -24 -21 -27 -12 -3 -18 -10 -14 -16 6 -10 0 -13 -35 -15 -8 -1 -27
-26 -42 -57 -23 -49 -28 -77 -38 -212 -11 -157 -29 -245 -54 -267 -28 -22 -58
-7 -82 41 -32 63 -45 190 -47 438 -2 178 0 213 17 256 23 64 85 147 130 175
32 19 36 26 36 63 1 52 15 120 37 172 63 149 179 220 390 241 l72 6 22 52 c48
114 170 261 284 344 17 12 27 22 24 22 -3 0 -28 -17 -55 -37z m-678 -2010 c7
-71 -2 -1203 -11 -1211 -6 -6 -28 20 -132 162 -49 65 -120 162 -159 215 -40
53 -125 155 -189 226 -161 178 -186 210 -233 306 -39 79 -142 340 -142 360 0
5 184 9 429 9 l429 0 8 -67z"/>
<path d="M1458 8103 c12 -2 32 -2 45 0 12 2 2 4 -23 4 -25 0 -35 -2 -22 -4z"/>
<path d="M1357 8073 c9 -3 10 -10 3 -24 -15 -27 -5 -23 14 6 16 24 16 25 -6
24 -13 0 -17 -3 -11 -6z"/>
<path d="M1412 8053 c-37 -53 -110 -208 -136 -293 -89 -281 -216 -1078 -216
-1355 0 -76 8 -141 31 -249 16 -81 28 -150 24 -155 -3 -5 0 -11 7 -13 9 -3 8
-15 -6 -45 -11 -26 -15 -49 -11 -64 5 -17 4 -21 -3 -14 -13 12 -60 154 -92
275 -51 194 -77 251 -50 109 6 -30 12 -65 14 -79 14 -87 26 -173 31 -225 7
-69 39 -234 61 -315 31 -113 109 -347 136 -408 15 -34 28 -70 28 -80 0 -9 9
-36 20 -59 10 -24 17 -43 14 -43 -2 0 5 -18 16 -40 11 -21 20 -47 20 -56 0 -9
11 -37 24 -64 28 -55 41 -200 19 -200 -7 0 -13 -7 -13 -16 0 -18 -23 -44 -39
-44 -6 0 -11 -4 -11 -10 0 -5 7 -10 16 -10 24 0 12 -35 -14 -38 -14 -2 -22
-10 -22 -23 0 -14 -7 -19 -30 -19 -23 0 -30 -4 -30 -20 0 -17 -7 -20 -40 -20
-36 0 -40 -2 -40 -25 0 -25 -1 -25 -80 -25 l-80 0 0 -35 c0 -34 -1 -35 -40
-35 -33 0 -40 3 -40 19 0 15 -10 21 -40 26 -30 5 -48 16 -68 42 -29 38 -111
123 -119 123 -2 0 -11 7 -19 15 -9 8 -12 15 -8 15 4 0 -13 22 -37 48 -62 68
-89 101 -89 110 0 4 -16 27 -35 51 -19 24 -35 50 -35 57 0 8 -4 14 -10 14 -11
0 -104 190 -114 234 -4 15 -9 26 -12 23 -3 -3 4 -36 15 -73 11 -37 17 -72 13
-78 -12 -19 -9 -29 34 -116 55 -112 182 -303 276 -415 89 -106 277 -291 365
-360 35 -26 63 -49 63 -51 0 -8 -156 89 -208 130 -74 57 -242 230 -322 331
-169 213 -353 546 -449 810 -9 26 -10 24 -5 -20 8 -66 62 -277 74 -289 6 -6
10 -22 10 -37 0 -15 6 -34 13 -41 6 -7 13 -24 14 -38 7 -72 190 -385 313 -535
89 -109 241 -266 251 -259 5 3 8 0 7 -8 -2 -7 2 -12 8 -11 6 1 35 -23 65 -54
30 -32 46 -51 37 -44 -10 8 -18 10 -18 7 0 -8 139 -146 147 -146 3 0 35 25 70
55 46 39 73 55 94 55 28 0 29 2 29 48 0 26 7 75 16 107 9 33 17 68 18 77 0 9
3 16 6 15 3 -1 41 36 86 81 l81 82 12 77 c21 129 80 405 90 417 5 6 21 40 34
76 14 36 64 148 112 250 112 239 148 328 141 352 -4 18 18 202 43 353 6 33 17
116 26 185 9 69 20 141 25 161 17 62 12 209 -9 275 -10 32 -26 85 -36 116 -9
32 -21 61 -26 64 -5 3 -7 9 -4 14 7 11 -22 185 -36 220 -6 13 -16 79 -23 146
-10 92 -18 130 -34 156 -20 30 -22 31 -22 10 0 -13 4 -20 10 -17 10 6 14 -11
11 -50 -2 -20 13 -112 45 -284 9 -47 13 -101 10 -120 -3 -20 -1 -43 4 -51 8
-12 10 -12 10 -1 0 8 3 11 6 8 4 -4 2 -12 -4 -19 -9 -12 3 -162 24 -278 4 -27
-36 -463 -50 -530 -1 -8 -2 136 -2 320 1 218 -4 375 -12 450 -37 317 -105 699
-178 995 -40 162 -113 406 -124 418 -4 5 -17 -4 -28 -20z m38 -113 c8 0 27
-42 36 -80 7 -32 9 -41 17 -60 7 -16 37 -145 63 -270 8 -41 31 -147 49 -235
31 -147 58 -299 69 -400 21 -171 50 -498 47 -510 -2 -5 -11 -89 -21 -185 -11
-97 -21 -182 -24 -190 -3 -8 -12 -64 -20 -125 -15 -110 -25 -157 -65 -315 -33
-128 -43 -163 -56 -185 -6 -11 -17 -41 -25 -67 -11 -43 -16 -48 -41 -48 -22 0
-29 5 -34 29 -3 16 -12 34 -19 40 -7 6 -22 32 -33 58 -43 98 -73 175 -73 186
0 11 -46 136 -71 192 -16 37 -58 219 -70 305 -16 117 -17 675 -1 815 31 271
95 639 143 828 22 88 62 181 72 170 4 -3 7 1 7 11 0 24 34 69 38 50 2 -8 7
-14 12 -14z m-315 -2021 c-5 -15 -4 -19 4 -15 6 4 11 2 11 -3 0 -6 -6 -11 -12
-12 -10 0 -10 -2 0 -6 6 -2 12 -9 12 -15 0 -7 -5 -6 -14 1 -11 9 -13 27 -7 64
0 4 4 7 7 7 3 0 2 -10 -1 -21z m-8 -131 c-3 -7 -5 -2 -5 12 0 14 2 19 5 13 2
-7 2 -19 0 -25z m50 -10 c-3 -8 -6 -5 -6 6 -1 11 2 17 5 13 3 -3 4 -12 1 -19z
m-16 -33 c5 4 9 1 9 -4 0 -6 -5 -11 -10 -11 -7 0 -7 -6 0 -20 6 -12 7 -20 1
-20 -14 0 -34 67 -24 82 6 9 9 6 11 -10 2 -12 8 -20 13 -17z m41 -87 c-7 -7
-12 -21 -12 -32 0 -17 -2 -18 -10 -6 -14 22 -12 40 5 40 8 0 15 5 15 12 0 6 3
8 7 5 4 -4 1 -13 -5 -19z m5 -80 c-3 -8 -6 -5 -6 6 -1 11 2 17 5 13 3 -3 4
-12 1 -19z m48 -106 c1 -10 8 -16 15 -14 6 1 9 -2 5 -8 -3 -5 -1 -10 4 -10 6
0 11 -5 11 -11 0 -5 -4 -8 -8 -5 -5 3 -9 -1 -9 -9 0 -8 4 -12 8 -9 4 2 10 0
14 -6 3 -5 1 -10 -4 -10 -6 0 -10 -3 -10 -7 1 -5 1 -12 0 -18 -3 -16 -40 78
-40 103 -1 12 -5 22 -11 22 -5 0 -7 7 -3 16 5 15 7 15 16 -1 5 -9 10 -24 12
-33z m81 -187 c1 -9 -6 -15 -17 -15 -19 0 -22 19 -4 32 11 8 18 3 21 -17z m13
-61 c-8 -10 -15 -12 -23 -4 -7 7 -4 14 10 24 22 17 32 3 13 -20z m35 -44 l7
-25 -15 25 c-17 28 -21 50 -7 35 5 -6 12 -21 15 -35z m-1118 -412 c77 -152
162 -275 348 -498 71 -85 121 -148 111 -140 -38 31 -268 307 -325 390 -57 84
-180 297 -180 312 0 20 13 2 46 -64z"/>
<path d="M1470 8073 c0 -5 4 -14 9 -21 7 -11 9 -11 14 1 3 9 16 17 29 20 15 3
10 5 -14 6 -21 0 -38 -2 -38 -6z"/>
<path d="M1592 7678 c5 -24 14 -47 19 -53 7 -6 6 0 0 18 -6 16 -11 39 -11 53
0 13 -4 24 -9 24 -5 0 -5 -18 1 -42z"/>
<path d="M1631 7534 c0 -11 3 -14 6 -6 3 7 2 16 -1 19 -3 4 -6 -2 -5 -13z"/>
<path d="M1640 7498 c0 -32 13 -78 22 -78 11 0 0 71 -13 85 -6 5 -9 3 -9 -7z"/>
<path d="M1674 7380 c2 -19 5 -42 6 -50 1 -9 5 -6 11 8 6 17 5 31 -6 50 l-14
27 3 -35z"/>
<path d="M6200 6880 c34 -4 16 -7 -74 -12 -65 -4 -124 -12 -131 -18 -7 -6 -17
-10 -21 -9 -5 1 -18 -1 -29 -5 -11 -4 -33 -13 -49 -19 -15 -5 -46 -25 -68 -44
-22 -18 -51 -36 -64 -39 -13 -3 -24 -11 -24 -18 0 -11 -89 -56 -110 -56 -6 0
-18 -6 -26 -12 -36 -29 -181 -181 -204 -214 -14 -20 -33 -45 -43 -56 -11 -11
-51 -80 -91 -154 -60 -111 -75 -132 -86 -121 -8 6 8 -13 36 -43 120 -131 224
-311 280 -486 41 -125 90 -176 238 -250 84 -41 147 -64 261 -92 l150 -38 6
-149 c4 -83 7 -494 8 -915 2 -702 4 -769 20 -808 l17 -43 13 53 c7 29 34 105
60 168 l46 115 5 790 5 790 30 2 c189 16 331 51 473 118 129 61 216 121 294
203 37 39 77 73 90 77 80 25 185 130 241 242 49 95 96 333 66 333 -6 0 -9 6
-6 13 11 30 -29 137 -76 202 -49 68 -62 77 -232 150 -54 24 -73 42 -100 96
-13 25 -43 62 -67 82 -24 21 -56 48 -71 62 -15 14 -32 25 -37 25 -5 0 -38 14
-72 30 -34 17 -72 30 -85 30 -14 0 -32 4 -41 9 -9 4 -143 10 -297 13 -154 2
-260 2 -235 -2z"/>
<path d="M977 6573 c-4 -7 -28 -78 -32 -93 -1 -3 -5 -13 -9 -22 -4 -9 -6 -25
-3 -35 3 -12 5 -10 6 8 1 22 5 26 26 21 25 -4 25 -3 25 62 0 62 -3 76 -13 59z"/>
<path d="M941 6364 c0 -11 3 -14 6 -6 3 7 2 16 -1 19 -3 4 -6 -2 -5 -13z"/>
<path d="M1085 5970 c-3 -5 3 -10 14 -10 12 0 21 5 21 10 0 6 -6 10 -14 10 -8
0 -18 -4 -21 -10z"/>
<path d="M11459 5343 c-24 -62 20 -186 107 -302 25 -34 59 -85 75 -114 36 -65
37 -53 3 30 -14 36 -31 100 -39 144 -8 43 -23 99 -34 123 -23 54 -83 146 -94
146 -4 0 -12 -12 -18 -27z m31 -8 c0 6 7 -1 14 -14 8 -14 11 -31 8 -39 -6 -16
-41 42 -41 68 0 10 3 8 9 -5 5 -11 9 -15 10 -10z"/>
<path d="M13890 5267 c-55 -54 -95 -103 -112 -138 -29 -59 -50 -167 -30 -155
8 5 11 -41 9 -168 -2 -199 -11 -190 91 -92 34 33 62 57 62 52 0 -14 -111 -145
-140 -166 -43 -31 -70 -122 -70 -237 l0 -93 24 15 c27 18 37 41 62 135 27 106
99 246 154 299 l47 46 7 293 c6 238 5 292 -6 292 -7 0 -51 -37 -98 -83z"/>
<path d="M11780 5312 c0 -21 -3 -27 -17 -37 -7 -5 -24 -36 -37 -67 -12 -32
-26 -55 -29 -51 -4 3 -7 -5 -8 -18 -1 -13 -4 -81 -7 -152 -4 -70 -4 -127 1
-127 4 0 7 7 7 15 0 8 20 54 44 102 24 49 51 112 60 142 20 68 20 159 1 185
-8 11 -15 14 -15 8z"/>
<path d="M12633 5245 c-3 -9 3 -37 12 -63 13 -35 46 -75 125 -154 59 -60 113
-108 120 -108 21 0 6 100 -24 158 -35 70 -80 118 -140 153 -57 32 -84 36 -93
14z m62 -23 c-6 -7 -45 9 -45 18 0 4 11 3 24 -3 14 -7 23 -13 21 -15z"/>
<path d="M13664 5158 c9 -16 12 -28 6 -28 -16 0 -12 -27 10 -62 l20 -33 0 47
c0 37 -6 53 -26 75 l-26 28 16 -27z"/>
<path d="M13137 5139 c-9 -6 -17 -16 -17 -24 0 -17 -57 -38 -62 -23 -2 6 -14
-17 -27 -52 -22 -59 -22 -65 -8 -109 11 -33 12 -48 3 -53 -6 -4 -14 0 -18 10
-4 9 -7 13 -8 7 -1 -5 -5 -1 -10 10 -8 19 -9 19 -9 -2 -1 -12 6 -28 14 -37 15
-15 21 -71 8 -79 -5 -3 -29 -2 -55 2 -33 6 -73 25 -130 63 -93 63 -165 88
-247 88 -60 0 -88 -11 -77 -29 4 -6 39 -34 78 -61 116 -81 285 -124 330 -84
12 12 21 14 30 7 7 -6 34 -18 60 -28 44 -16 48 -21 83 -98 20 -45 39 -87 42
-94 3 -7 -37 15 -89 49 -51 35 -96 61 -100 60 -4 -1 -36 5 -70 13 -88 21 -289
18 -288 -4 1 -15 146 -95 203 -112 67 -20 210 -39 294 -39 51 0 54 -1 93 -51
40 -50 50 -79 29 -79 -6 0 -62 16 -125 35 -63 19 -137 37 -165 41 -50 7 -259
-13 -259 -25 0 -9 93 -59 142 -77 32 -11 82 -15 201 -14 87 0 179 -2 206 -6
46 -6 48 -8 94 -80 l47 -74 -38 19 c-132 68 -290 83 -419 41 -73 -24 -88 -36
-55 -46 9 -3 37 -15 61 -26 58 -29 137 -33 310 -18 l144 14 43 -50 c29 -33 39
-51 31 -56 -7 -4 -62 -8 -124 -8 -124 0 -241 -20 -287 -50 l-30 -19 29 -12
c17 -7 73 -12 125 -12 104 0 187 19 256 59 22 13 45 24 51 24 11 0 102 -117
141 -182 17 -26 19 -38 11 -44 -7 -4 -9 -3 -6 3 12 19 -95 33 -186 23 -119
-12 -158 -25 -195 -63 l-33 -34 38 -6 c71 -12 124 -7 246 23 67 17 130 32 140
34 12 3 26 -8 43 -34 27 -41 25 -60 -6 -60 -19 0 -146 -63 -168 -84 -10 -10
-9 -16 2 -31 13 -19 14 -19 57 0 28 12 81 57 144 120 55 55 133 129 173 163
67 57 70 62 45 62 l-28 0 30 20 c17 11 38 17 47 14 10 -3 28 2 39 10 22 15 22
15 1 13 -11 0 -18 -5 -15 -10 3 -5 -4 -6 -15 -3 -11 4 -38 0 -59 -9 -21 -9
-33 -11 -28 -6 6 6 28 17 50 26 l40 15 -44 -5 -44 -6 7 43 c9 57 35 112 94
202 40 61 49 81 43 102 -6 25 -8 24 -34 -25 -16 -28 -30 -51 -32 -51 -3 0 -3
12 -1 28 2 15 1 21 -1 15 -2 -7 -11 -13 -19 -13 -8 0 -14 -10 -14 -25 0 -14 4
-25 10 -25 5 0 7 -7 3 -16 -4 -10 -8 -12 -13 -4 -12 19 -37 0 -44 -32 -3 -17
-7 -69 -8 -117 -1 -47 -3 -69 -5 -48 -2 20 -7 37 -11 37 -17 -1 -110 -28 -139
-40 -32 -14 -73 -73 -73 -106 -1 -61 -43 -22 -207 192 l-33 43 85 118 c49 68
117 182 161 270 79 158 79 155 57 241 l-8 34 -25 -29 c-21 -24 -22 -25 -2 -9
22 19 22 19 22 -1 0 -21 -67 -86 -80 -78 -5 3 -14 -5 -20 -17 -11 -22 -10 -22
4 -4 18 23 21 14 5 -15 -5 -11 -15 -16 -21 -13 -8 5 -9 1 -5 -10 4 -10 3 -15
-3 -11 -18 11 -81 -146 -120 -298 -20 -81 -41 -152 -47 -158 -13 -13 -173 235
-173 270 0 13 38 119 84 235 94 237 106 273 106 333 l0 43 -43 -45 c-24 -24
-49 -55 -57 -70 -8 -15 -17 -22 -23 -16 -5 5 -4 17 2 30 7 12 9 21 7 21 -10 0
-36 -60 -51 -117 -9 -32 -20 -126 -25 -210 -4 -84 -11 -157 -15 -163 -16 -26
-52 35 -106 182 l-28 78 19 32 c52 89 92 204 97 279 6 79 0 94 -30 78z m690
-1231 c-2 -13 -4 -5 -4 17 -1 22 1 32 4 23 2 -10 2 -28 0 -40z m-270 -94 c-3
-3 -12 -4 -19 -1 -8 3 -5 6 6 6 11 1 17 -2 13 -5z"/>
<path d="M11928 5063 c-9 -24 -23 -43 -30 -43 -22 0 -69 -82 -120 -209 -44
-111 -47 -115 -57 -88 -6 16 -11 35 -11 43 0 8 -3 13 -7 12 -5 -1 -36 27 -71
63 -34 36 -79 75 -100 85 -20 10 -44 24 -53 31 -8 7 -38 16 -64 19 -27 3 -53
8 -57 10 -16 10 -7 -13 20 -57 34 -52 75 -85 175 -139 40 -22 97 -57 127 -78
l55 -38 53 55 c80 86 170 282 160 352 -3 21 -5 18 -20 -18z"/>
<path d="M10845 5035 c-22 -19 -44 -35 -48 -35 -14 0 -118 -104 -133 -133 -8
-15 -18 -25 -23 -23 -16 10 -95 -109 -87 -130 3 -9 1 -12 -4 -9 -6 3 -10 1
-10 -4 0 -6 4 -11 10 -11 5 0 32 -46 59 -102 60 -127 85 -153 140 -145 34 4
41 1 60 -24 37 -49 73 -61 159 -53 43 3 86 10 97 14 68 26 113 133 108 260 -1
41 -3 85 -3 98 0 13 -7 30 -15 38 -8 9 -15 25 -15 37 0 33 -11 67 -20 62 -4
-2 -12 13 -19 35 -6 22 -17 39 -23 37 -5 -1 -12 6 -13 16 -6 33 -35 66 -75 87
-59 30 -98 26 -145 -15z"/>
<path d="M13314 5038 l-19 -23 23 19 c21 18 27 26 19 26 -2 0 -12 -10 -23 -22z"/>
<path d="M15012 5007 c-1 -28 4 -50 13 -57 12 -10 15 -9 15 8 0 12 -5 24 -10
27 -6 4 -8 14 -6 23 3 10 2 23 -3 31 -5 8 -9 -3 -9 -32z"/>
<path d="M4404 4998 l-19 -23 23 19 c12 11 22 21 22 23 0 8 -8 2 -26 -19z"/>
<path d="M12136 5004 c-3 -11 -20 -30 -36 -42 -31 -24 -151 -178 -232 -301
-10 -14 -18 -21 -18 -16 -1 6 -12 -19 -26 -55 -40 -103 -48 -104 -68 -9 -10
44 -20 79 -22 76 -3 -3 -1 -22 5 -44 16 -57 15 -57 -41 -2 -31 29 -87 67 -134
91 -72 35 -92 41 -165 44 -108 4 -124 -4 -84 -46 40 -42 80 -62 238 -117 134
-46 201 -75 211 -92 7 -10 104 89 185 187 106 130 209 304 198 336 -2 6 -7 2
-11 -10z"/>
<path d="M305 5000 c3 -5 8 -10 11 -10 2 0 4 5 4 10 0 6 -5 10 -11 10 -5 0 -7
-4 -4 -10z"/>
<path d="M13560 4924 c0 -8 -4 -12 -10 -9 -15 9 -60 -25 -53 -41 5 -13 -8 -19
-31 -15 -14 3 -36 -21 -29 -32 3 -5 1 -7 -4 -4 -15 9 -78 -88 -97 -148 -9 -27
-24 -93 -35 -145 -11 -52 -27 -113 -36 -135 l-16 -40 26 30 c14 17 42 59 62
95 20 36 53 90 73 120 73 111 110 178 139 258 17 45 26 82 21 82 -6 0 -10 -7
-10 -16z m-25 -33 c-3 -6 -14 -11 -23 -11 -13 0 -13 2 4 14 21 15 30 14 19 -3z"/>
<path d="M4295 4900 c6 -10 -52 -70 -69 -70 -23 0 -36 -32 -24 -54 9 -16 8
-18 -9 -14 -17 4 -57 -13 -53 -24 2 -4 -10 -39 -22 -64 -5 -11 -11 -39 -12
-61 -2 -22 -6 -45 -9 -50 -3 -5 -8 -54 -11 -109 l-5 -99 15 64 c24 108 55 203
90 280 19 40 31 78 27 84 -3 6 -1 7 5 3 12 -7 35 27 25 38 -3 3 -2 6 4 6 5 0
24 17 40 38 20 24 26 39 18 39 -8 0 -12 -3 -10 -7z"/>
<path d="M10453 4822 c-40 -59 -66 -120 -59 -139 4 -9 2 -11 -5 -7 -28 17 1
-23 31 -43 41 -28 50 -28 85 -2 22 18 26 28 21 50 -3 16 -2 29 2 29 5 0 -1 36
-12 80 -11 44 -23 80 -26 80 -3 0 -19 -21 -37 -48z"/>
<path d="M12175 4767 c-27 -39 -61 -84 -75 -99 -42 -47 -50 -57 -50 -63 0 -3
-19 -33 -42 -66 -24 -33 -47 -68 -53 -77 -5 -9 -18 -25 -28 -36 -18 -21 -18
-21 -7 8 6 16 9 31 7 33 -3 2 -19 -32 -37 -77 -18 -44 -38 -80 -45 -80 -7 0
-16 15 -19 34 -5 26 -11 33 -24 29 -10 -2 -49 11 -87 31 -109 54 -188 76 -274
76 -91 0 -108 -8 -91 -40 23 -42 218 -109 283 -96 15 3 26 2 23 -3 -3 -5 15
-12 40 -16 79 -11 142 -34 147 -53 4 -14 5 -13 6 3 0 12 26 45 57 75 118 115
266 320 301 418 13 35 22 66 21 67 -2 2 -25 -29 -53 -68z"/>
<path d="M14621 4821 c-19 -12 -9 -59 22 -108 13 -21 27 -49 31 -63 l7 -25
-16 25 -16 25 7 -34 c3 -18 8 -41 9 -50 2 -9 4 -28 4 -43 1 -15 8 -34 18 -43
9 -9 12 -20 7 -23 -5 -4 -10 -14 -12 -22 -1 -8 7 -4 18 10 21 26 27 21 10 -10
-7 -14 -5 -19 10 -23 16 -4 21 2 26 29 5 28 9 32 20 23 8 -6 14 -20 14 -29 0
-36 13 -50 105 -115 101 -72 212 -180 240 -235 l18 -35 -34 26 c-26 20 -51 28
-104 33 -104 9 -105 10 -105 18 0 4 -7 8 -16 8 -12 0 -10 -6 10 -21 14 -11 31
-30 37 -42 11 -21 10 -21 -15 2 -14 14 -26 21 -26 17 0 -4 -7 0 -15 8 -9 9
-39 23 -68 31 -60 19 -271 31 -341 21 -45 -7 -47 -9 -42 -33 17 -67 86 -134
224 -217 34 -21 68 -44 76 -52 12 -12 23 -12 68 -2 36 9 141 13 328 13 247 -1
285 -3 374 -23 55 -12 103 -19 106 -15 4 5 12 40 19 78 12 60 86 303 96 314 3
2 16 -11 30 -28 15 -17 41 -34 58 -39 32 -8 50 -32 24 -32 -9 0 -22 -6 -29
-13 -7 -7 -28 -20 -45 -28 -18 -7 -33 -17 -33 -21 0 -5 -7 -8 -15 -8 -8 0 -14
-3 -14 -7 4 -22 -2 -33 -13 -27 -9 5 -9 2 1 -9 9 -11 10 -17 2 -17 -6 0 -11
-7 -11 -16 0 -8 -4 -13 -9 -10 -5 4 -16 -29 -23 -71 -16 -88 -27 -73 79 -120
92 -41 172 -93 238 -154 69 -65 256 -288 254 -303 0 -5 6 -13 14 -18 9 -4 14
-17 12 -28 -2 -11 0 -18 5 -15 4 3 14 -11 20 -30 6 -19 16 -33 21 -29 5 3 6
11 3 17 -4 7 -3 8 2 4 5 -5 9 -12 9 -15 1 -14 29 -57 42 -65 16 -10 58 -92 79
-157 9 -25 22 -59 29 -75 8 -17 19 -60 25 -95 11 -64 28 -240 23 -240 -2 0
-21 36 -43 79 -149 297 -435 660 -684 869 -68 56 -120 89 -213 133 -67 32
-141 61 -164 64 -23 3 -48 10 -56 16 -7 6 -13 9 -13 6 0 -3 -16 1 -35 9 -73
30 -46 12 50 -34 121 -59 265 -145 360 -217 200 -150 413 -379 577 -620 61
-91 159 -284 162 -320 0 -13 4 -21 7 -19 4 2 9 -7 11 -21 3 -14 1 -25 -3 -25
-5 0 -9 5 -9 10 0 17 -25 11 -40 -10 -8 -11 -18 -20 -23 -20 -4 0 -19 -11 -32
-24 -13 -13 -42 -27 -64 -31 -23 -4 -41 -12 -41 -19 0 -7 -48 -24 -120 -41
-66 -16 -120 -32 -120 -37 0 -4 -9 -8 -20 -8 -11 0 -20 -4 -20 -10 0 -5 -9
-10 -20 -10 -11 0 -20 5 -20 10 0 6 -7 10 -15 10 -8 0 -15 -5 -15 -12 0 -6 -9
-3 -20 7 -11 10 -20 24 -20 31 0 7 -4 14 -8 16 -4 2 -19 21 -32 43 -96 161
-250 379 -371 525 -96 116 -287 306 -362 360 -27 19 -58 44 -70 55 -40 37 -87
66 -96 60 -5 -3 -17 5 -25 17 -9 12 -16 19 -16 14 0 -5 -12 0 -27 10 -41 27
-316 162 -364 179 -23 8 -45 12 -50 9 -5 -3 -9 0 -9 5 0 6 -7 11 -16 11 -9 0
-38 8 -63 17 -28 10 -55 13 -67 9 -14 -6 -1 -12 52 -26 100 -26 282 -102 389
-162 264 -149 447 -306 650 -558 117 -145 285 -382 285 -402 0 -4 9 -17 21
-29 13 -13 18 -27 14 -40 -5 -14 0 -21 18 -28 13 -5 27 -17 31 -26 4 -11 2
-14 -7 -9 -8 6 -8 3 1 -9 15 -17 8 -77 -9 -77 -5 0 -9 -9 -9 -20 0 -18 -7 -20
-55 -20 -30 0 -55 -4 -55 -10 0 -5 -9 -10 -20 -10 -11 0 -20 -4 -20 -10 0 -5
-9 -10 -20 -10 -11 0 -20 5 -20 10 0 6 -33 10 -80 10 -47 0 -80 -4 -80 -10 0
-6 -33 -10 -80 -10 -47 0 -80 -4 -80 -10 0 -5 -18 -10 -40 -10 -22 0 -40 -4
-40 -10 0 -6 -33 -10 -80 -10 -73 0 -80 -2 -80 -20 0 -17 -7 -20 -44 -20 -28
0 -51 6 -61 16 -9 9 -18 14 -21 12 -6 -7 7 -38 16 -38 5 0 18 -19 29 -42 12
-24 41 -65 66 -91 25 -26 45 -50 45 -52 0 -3 25 -31 55 -62 30 -32 55 -62 55
-68 0 -25 -198 201 -313 357 -60 81 -89 108 -134 126 -39 16 -261 72 -281 71
-9 0 16 -9 56 -20 94 -25 246 -86 275 -110 12 -10 17 -18 10 -19 -6 0 -15 5
-18 10 -3 6 -15 10 -26 10 -11 0 -18 -4 -15 -9 3 -5 -7 -14 -23 -19 -35 -12
-81 -51 -81 -68 0 -7 -6 -15 -12 -17 -7 -3 -4 -6 8 -6 11 -1 28 -7 36 -13 15
-12 15 -17 3 -53 -8 -22 -15 -47 -15 -55 0 -19 -68 -79 -97 -86 -13 -4 -23
-11 -23 -18 -1 -11 -63 -54 -112 -77 -29 -13 -29 -33 0 -22 9 4 -9 -22 -41
-58 -32 -35 -79 -97 -104 -136 -25 -40 -48 -71 -53 -68 -4 2 -12 -7 -19 -21
-8 -19 -8 -23 0 -18 7 4 10 2 8 -5 -3 -7 -9 -13 -14 -13 -27 -3 -121 -270
-180 -508 -20 -80 -40 -162 -46 -182 l-10 -38 -122 0 c-215 0 -433 32 -522 77
-46 23 -16 -2 37 -31 158 -88 733 -120 1663 -93 186 6 473 5 800 -3 881 -21
1324 -24 1351 -10 13 7 21 16 19 21 -3 4 163 8 367 8 205 1 390 4 411 8 l37 6
0 63 c0 63 0 64 -28 64 -62 0 -214 41 -238 64 -8 9 -27 16 -42 16 -40 -1 -191
72 -192 91 0 9 -18 24 -40 34 -26 12 -40 25 -40 37 0 11 -7 18 -20 18 -14 0
-20 7 -20 23 0 12 -9 28 -20 35 -11 7 -20 19 -20 27 0 8 -4 15 -10 15 -5 0
-10 9 -10 20 0 11 -4 20 -10 20 -5 0 -10 18 -10 40 0 22 5 40 10 40 6 0 10 9
10 20 0 11 -5 20 -11 20 -6 0 -9 6 -6 13 2 6 11 11 21 9 9 -2 16 2 16 8 0 5
-5 10 -12 10 -6 0 -3 9 7 20 12 14 21 17 25 9 4 -6 10 3 13 19 8 38 47 57 157
73 77 11 82 13 50 20 -19 5 -53 6 -75 4 -22 -2 -32 -2 -22 1 21 7 23 24 1 24
-18 0 -58 86 -69 148 l-7 43 -20 -38 c-29 -54 -81 -123 -119 -158 -26 -23 -24
-19 8 16 70 79 119 171 107 202 -3 9 -16 12 -34 9 -18 -3 -30 0 -30 7 0 6 -9
11 -20 11 -11 0 -20 7 -20 15 0 8 -9 15 -20 15 -11 0 -20 5 -20 10 0 6 -7 10
-15 10 -9 0 -27 11 -41 25 -14 14 -34 25 -44 25 -11 0 -20 5 -20 10 0 6 -9 10
-20 10 -11 0 -20 4 -20 9 0 5 -13 14 -30 21 -16 7 -30 17 -30 23 0 6 -16 7
-40 4 -26 -3 -40 -1 -41 6 0 7 -11 -15 -24 -48 -40 -101 -28 -49 35 144 33
102 58 186 57 188 -2 1 -18 -34 -37 -80 -35 -85 -72 -146 -78 -127 -2 6 -27
22 -55 37 -29 14 -54 29 -57 33 -9 13 -103 29 -134 23 -47 -9 -22 13 29 26 41
10 50 18 89 79 42 66 204 226 309 305 52 40 67 45 67 23 0 -35 48 -120 128
-226 85 -114 142 -210 142 -242 0 -9 5 -20 10 -23 6 -4 10 10 10 34 0 26 5 41
13 41 8 0 7 4 -3 10 -26 17 11 12 83 -10 118 -37 256 -149 316 -260 17 -30 31
-50 31 -45 0 6 -14 35 -32 65 -46 81 -179 209 -261 250 -41 21 -65 40 -62 48
2 6 -1 12 -8 13 -7 0 10 7 36 14 26 7 53 17 60 23 7 5 37 17 67 27 30 10 84
31 120 47 35 16 97 43 137 60 l73 31 0 213 0 214 -160 0 c-100 0 -160 -4 -160
-10 0 -16 -109 -12 -126 4 -8 8 -14 17 -14 21 0 14 -29 35 -48 35 -11 0 -22
-8 -26 -17 -13 -38 -52 -97 -66 -101 -13 -4 -13 -2 1 14 9 10 32 47 51 82 19
34 37 60 39 57 3 -2 6 5 6 17 2 23 23 51 23 30 0 -7 5 -12 11 -12 7 0 9 11 6
27 -4 20 8 54 39 119 46 97 50 109 34 99 -6 -4 -23 -10 -39 -15 l-29 -8 33 82
c18 44 49 116 69 160 41 89 45 107 15 56 -12 -19 -26 -38 -31 -41 -5 -3 -10
-15 -11 -27 0 -11 -5 -18 -9 -16 -4 3 -16 -12 -25 -33 -10 -21 -24 -42 -30
-46 -7 -4 -13 -17 -13 -27 0 -11 -11 -27 -25 -36 -14 -9 -25 -25 -25 -35 0
-14 -7 -19 -25 -19 -18 0 -25 -5 -25 -19 0 -13 -10 -20 -31 -25 -41 -8 -189
-8 -268 0 -50 6 -61 10 -61 25 0 15 -8 19 -40 19 -28 0 -40 4 -40 14 0 9 -15
17 -40 21 -30 5 -40 11 -40 26 0 12 -7 19 -20 19 -11 0 -20 4 -20 9 0 4 -27
14 -60 21 -33 7 -60 18 -60 24 0 6 -21 18 -47 25 -27 8 -51 18 -54 23 -3 5
-20 10 -37 11 -24 1 -31 6 -27 17 3 8 -9 -1 -26 -20 -17 -19 -58 -92 -92 -162
-34 -70 -65 -128 -69 -128 -10 0 37 124 83 220 85 177 205 376 344 566 34 47
40 61 27 61 -9 0 -31 6 -47 13 -28 11 -32 20 -43 77 -7 35 -20 78 -30 96 -15
27 -22 32 -52 30 -19 -1 -55 7 -79 18 -24 10 -50 19 -57 19 -8 0 -14 5 -14 10
0 6 -17 10 -38 10 -26 0 -42 6 -52 20 -8 11 -22 20 -32 20 -14 0 -18 -8 -18
-35 0 -19 5 -35 11 -35 8 0 8 -4 2 -12 -7 -8 -7 -54 -2 -123 4 -60 7 -236 7
-390 l-1 -280 -8 280 c-5 154 -13 333 -18 399 -9 108 -13 120 -36 142 -14 13
-35 24 -45 24 -33 0 -70 -19 -70 -36 0 -13 -7 -15 -37 -9 -21 4 -46 14 -56 23
-18 16 -18 15 -6 -11 7 -15 16 -27 21 -27 4 0 8 -9 8 -19 0 -11 5 -21 12 -23
6 -2 9 -10 6 -18 -2 -8 -23 12 -52 53 -26 37 -57 72 -68 78 -11 6 -17 16 -15
24 3 7 -1 12 -11 11 -15 -1 -17 13 -20 107 -2 84 -6 107 -17 107 -7 0 -16 8
-20 19 -3 10 -18 21 -34 24 -18 4 -31 14 -35 29 -6 20 -10 16 -37 -36 -44 -84
-79 -209 -79 -280 -1 -74 -11 -61 -36 46 -9 42 -21 75 -26 72 -4 -3 -8 -1 -8
4 0 16 -83 19 -112 5 -20 -10 -28 -24 -33 -56 -4 -23 -13 -49 -20 -57 -7 -8
-15 -28 -18 -45 -13 -70 -19 -92 -35 -122 -9 -18 -22 -33 -29 -33 -7 0 -13 -4
-13 -9 0 -4 -11 -20 -25 -36 l-26 -27 -21 23 c-18 22 -20 22 -15 4 3 -11 8
-60 11 -110 6 -101 3 -94 -40 135 -35 185 -38 306 -6 366 l21 41 -30 49 c-17
26 -46 64 -64 83 -18 20 -45 50 -60 66 -18 20 -14 11 13 -30 41 -63 67 -125
52 -125 -5 0 -11 8 -13 18 -3 10 -5 5 -6 -12 -1 -20 -13 -39 -41 -63 -22 -20
-40 -43 -40 -52 -1 -12 -5 -11 -20 8 -16 19 -23 21 -35 11 -17 -14 -55 -22
-112 -23 -24 -1 -43 -6 -44 -12 -1 -5 -5 1 -9 15 -4 14 -9 68 -10 120 -1 52
-4 87 -7 77 -4 -14 -8 -16 -19 -6 -7 6 -20 9 -28 6 -9 -4 -17 1 -19 11 -4 16
-5 15 -6 0 0 -10 -5 -18 -9 -18 -5 0 -19 -32 -31 -70 -36 -109 -51 -108 -57 1
-4 66 -34 203 -52 235 -5 8 -12 10 -21 5z m1523 -691 c-6 -5 -24 21 -24 34 0
6 6 1 14 -10 8 -10 12 -21 10 -24z m183 -807 c-2 -27 -3 -5 -3 47 0 52 1 74 3
48 2 -27 2 -69 0 -95z m973 -518 c-21 -26 -31 -16 -13 11 9 15 19 21 21 15 2
-6 -2 -18 -8 -26z m-1595 -345 c3 -5 1 -10 -4 -10 -6 0 -11 5 -11 10 0 6 2 10
4 10 3 0 8 -4 11 -10z m75 -130 c0 -5 -2 -10 -4 -10 -3 0 -8 5 -11 10 -3 6 -1
10 4 10 6 0 11 -4 11 -10z m130 -50 c0 -5 -2 -10 -4 -10 -3 0 -8 5 -11 10 -3
6 -1 10 4 10 6 0 11 -4 11 -10z m-1010 -170 c0 -5 -2 -10 -4 -10 -3 0 -8 5
-11 10 -3 6 -1 10 4 10 6 0 11 -4 11 -10z m1560 -179 c164 -35 314 -128 393
-242 31 -45 40 -68 44 -116 6 -60 -7 -233 -14 -201 -2 9 -17 22 -34 28 -16 7
-29 17 -29 22 0 6 -18 8 -40 6 -22 -2 -40 0 -40 4 0 5 -9 8 -20 8 -13 0 -18 5
-14 15 4 9 0 15 -10 15 -9 0 -16 5 -16 10 0 6 -7 10 -15 10 -9 0 -15 9 -15 21
0 30 -164 190 -222 217 -50 23 -88 29 -88 13 0 -6 25 -26 55 -46 30 -21 55
-41 55 -46 0 -5 6 -9 13 -10 6 0 31 -23 55 -51 34 -40 42 -56 40 -82 l-3 -31
-77 -3 c-60 -2 -78 -6 -78 -17 0 -11 -12 -15 -40 -15 -22 0 -40 5 -40 10 0 6
-16 10 -35 10 -21 0 -35 -5 -35 -12 0 -9 -4 -8 -10 2 -6 10 -10 11 -10 3 0 -8
-14 -13 -34 -13 -19 0 -36 6 -39 13 -3 9 -11 9 -32 2 -58 -20 -61 -153 -6
-231 18 -26 30 -48 28 -51 -8 -8 -67 91 -78 130 -8 29 -7 57 1 101 7 34 14 72
17 86 3 17 -7 44 -31 84 -73 121 -83 216 -34 314 20 41 29 49 68 59 63 18 253
9 370 -16z m-1320 -136 l25 -30 -27 24 c-16 14 -28 29 -28 34 0 6 1 8 3 6 1
-2 13 -17 27 -34z m-435 0 c174 -23 278 -60 323 -116 13 -16 67 -65 120 -108
54 -43 135 -120 182 -171 82 -90 85 -95 90 -149 5 -54 4 -57 -28 -78 -18 -13
-42 -23 -52 -23 -14 0 -20 -7 -20 -24 0 -21 -5 -24 -61 -30 -34 -3 -79 -6
-100 -6 -22 0 -39 -4 -39 -10 0 -5 -18 -10 -40 -10 -22 0 -40 -4 -40 -8 0 -5
-53 -12 -117 -15 -65 -4 -119 -11 -121 -17 -2 -6 -10 -6 -24 1 -11 6 -34 8
-52 5 -18 -3 -98 -7 -179 -8 -124 -1 -147 -3 -147 -16 0 -13 -18 -14 -127 -10
-71 3 -154 3 -185 -1 l-58 -7 -1 30 c-1 41 -25 -66 -38 -174 -15 -114 -34
-140 -26 -35 15 202 75 445 152 622 55 126 165 296 226 348 l42 37 100 -6 c55
-3 154 -12 220 -21z m560 -125 c10 -11 16 -20 13 -20 -3 0 -13 9 -23 20 -10
11 -16 20 -13 20 3 0 13 -9 23 -20z m1015 -643 c0 -12 0 -11 -24 28 l-17 30
20 -24 c12 -13 21 -28 21 -34z"/>
<path d="M7751 4810 c-35 -8 -51 -24 -51 -50 0 -8 9 -130 20 -270 10 -140 29
-401 40 -580 12 -179 24 -328 29 -333 4 -4 311 -3 682 3 371 5 799 10 951 10
152 0 279 4 282 8 3 5 -6 132 -19 283 -13 151 -35 411 -50 579 -21 252 -29
309 -44 330 l-18 25 -894 2 c-492 0 -909 -3 -928 -7z"/>
<path d="M4686 4758 c-9 -12 -16 -28 -16 -35 0 -7 -4 -13 -9 -13 -5 0 -13 -10
-17 -22 -23 -77 -164 -343 -243 -461 -60 -89 -90 -142 -84 -148 21 -21 241
351 345 583 48 107 57 143 24 96z"/>
<path d="M13599 4743 c-13 -16 -12 -17 4 -4 16 13 21 21 13 21 -2 0 -10 -8
-17 -17z"/>
<path d="M14577 4730 c-3 -11 -9 -20 -14 -19 -23 4 -43 -2 -37 -12 3 -6 16 -8
28 -5 15 4 27 -2 40 -19 10 -14 22 -23 26 -20 8 5 14 -29 26 -132 7 -65 2 -72
-30 -48 -14 10 -17 24 -14 53 3 32 0 38 -13 35 -14 -4 -15 -11 -8 -36 14 -50
10 -55 -12 -14 -11 20 -26 37 -33 37 -21 0 -63 47 -69 78 -4 19 -12 28 -26 29
-24 2 -27 -7 -9 -25 9 -9 8 -12 -7 -14 -11 0 -24 -2 -30 -2 -22 -4 -51 -26
-70 -55 -11 -16 -37 -38 -58 -47 -21 -10 -43 -26 -48 -37 -9 -17 -8 -17 10 -7
30 16 40 6 39 -40 0 -33 -4 -40 -26 -48 -21 -7 -8 -11 69 -24 112 -18 166 -42
244 -108 54 -46 86 -62 85 -42 -1 4 -7 48 -14 97 -14 93 -11 116 21 134 13 7
17 20 15 53 -4 68 -24 178 -33 178 -5 0 -13 18 -19 40 -12 44 -25 51 -33 20z"/>
<path d="M13701 4714 c0 -11 3 -14 6 -6 3 7 2 16 -1 19 -3 4 -6 -2 -5 -13z"/>
<path d="M14621 4720 c0 -8 4 -22 9 -30 12 -18 12 -2 0 25 -6 13 -9 15 -9 5z"/>
<path d="M1497 4684 c-25 -48 -49 -181 -37 -204 5 -10 10 -30 10 -44 0 -16 6
-26 14 -26 8 0 18 -5 21 -10 9 -14 -13 -239 -27 -273 -12 -30 -18 -30 -97 4
-50 22 -74 24 -49 5 15 -11 13 -14 -18 -25 -19 -7 -34 -18 -34 -26 0 -7 -9
-17 -20 -20 -11 -3 -20 -11 -20 -16 0 -6 -4 -7 -10 -4 -10 6 -18 -18 -24 -71
-3 -30 1 -34 47 -55 28 -13 70 -36 93 -51 l43 -27 -15 -30 c-9 -18 -23 -31
-34 -31 -11 0 -26 -13 -35 -30 -11 -21 -23 -30 -43 -31 -15 -1 0 -5 33 -10 57
-7 61 -7 82 19 12 14 30 42 40 61 10 19 23 42 30 50 7 9 43 59 81 112 l69 96
-2 133 c-2 73 -7 135 -12 139 -5 3 -15 60 -22 126 -14 138 -29 234 -41 254 -6
11 -11 7 -23 -15z"/>
<path d="M12435 4673 c-27 -20 -109 -95 -181 -167 -113 -114 -158 -165 -277
-320 -29 -38 -39 -56 -32 -56 7 0 66 43 110 80 84 70 457 502 433 500 -2 0
-25 -17 -53 -37z"/>
<path d="M6831 4684 c0 -11 3 -14 6 -6 3 7 2 16 -1 19 -3 4 -6 -2 -5 -13z"/>
<path d="M14498 4683 c7 -3 16 -2 19 1 4 3 -2 6 -13 5 -11 0 -14 -3 -6 -6z"/>
<path d="M6845 4640 c3 -14 19 -78 36 -143 17 -65 31 -128 33 -140 1 -12 6
-30 10 -39 5 -10 6 -25 2 -33 -3 -8 -1 -15 4 -15 6 0 10 -9 10 -19 0 -17 -7
-19 -57 -17 -32 2 -82 4 -110 4 -40 2 -53 6 -53 17 0 12 -16 15 -80 15 -64 0
-80 -3 -80 -15 0 -9 -9 -15 -24 -15 -21 0 -25 5 -24 30 1 17 -2 34 -7 38 -4 4
-5 -47 -3 -113 6 -130 33 -270 50 -259 6 4 8 2 5 -4 -9 -13 2 -44 13 -37 5 3
12 0 16 -6 4 -8 3 -9 -4 -5 -7 4 -12 2 -12 -5 0 -15 105 -119 120 -119 6 0 8
6 4 13 -4 7 -3 9 2 4 5 -5 9 -12 9 -15 0 -4 12 -19 27 -33 l26 -26 11 37 c16
55 94 232 126 285 l27 47 40 -58 c79 -119 198 -380 198 -438 0 -12 -16 -16
-77 -18 -70 -3 -78 -5 -81 -24 -2 -17 -16 -24 -75 -38 -40 -9 -87 -20 -104
-23 -22 -3 -33 -11 -33 -22 0 -14 -2 -14 -10 -1 -7 10 -10 -33 -10 -132 l0
-147 -72 -3 c-40 -2 88 -1 285 1 278 3 367 1 398 -9 33 -11 118 -11 482 -1
584 16 638 16 802 6 106 -7 129 -11 95 -16 -25 -3 135 -7 355 -9 394 -3 397
-3 190 -11 -115 -4 -298 -13 -405 -18 -107 -6 -292 -9 -410 -7 -145 2 -171 1
-80 -3 l135 -6 -230 -10 c-287 -11 -367 -10 -905 21 -239 13 -536 29 -660 34
-124 5 -264 12 -312 15 l-88 6 0 -61 0 -60 30 0 c17 0 33 -6 35 -13 3 -7 4
-125 3 -262 l-3 -250 -22 47 c-24 52 -71 125 -116 178 -32 38 -158 150 -169
150 -4 0 -33 17 -65 39 -121 80 -215 114 -335 123 -82 6 -61 -5 25 -13 40 -4
97 -16 127 -28 69 -26 212 -115 202 -126 -4 -5 -2 -5 5 -1 47 27 224 -160 312
-329 l31 -60 0 -267 0 -267 -52 -30 c-29 -16 -89 -44 -133 -61 l-80 -32 -262
-3 c-144 -2 -276 -7 -295 -13 -18 -6 -57 -14 -86 -17 -42 -6 -52 -10 -48 -22
4 -8 9 -26 12 -39 l6 -24 292 1 c160 1 371 4 469 8 l177 6 0 -65 c1 -36 0
-264 0 -507 0 -340 2 -443 12 -449 7 -4 75 -9 153 -11 77 -1 129 1 115 5 l-25
8 1 214 c0 118 1 400 2 625 l2 410 650 -3 650 -2 0 -273 c0 -318 11 -1160 16
-1166 1 -1 69 -5 151 -6 81 -2 136 -1 121 1 l-28 5 0 726 0 726 83 -6 c45 -4
367 -7 715 -7 l632 0 1 -22 c1 -21 2 -21 7 -3 8 35 40 -82 48 -175 3 -47 12
-110 19 -140 17 -72 24 -139 30 -285 3 -66 8 -128 11 -139 10 -30 11 -96 2
-96 -4 0 -9 17 -9 38 -1 20 -3 30 -6 21 -2 -9 3 -70 11 -135 9 -65 16 -121 16
-125 0 -3 -32 -9 -71 -12 -78 -7 -134 -30 -161 -67 -11 -15 -23 -60 -30 -110
-6 -47 -14 -87 -16 -90 -2 -3 -218 -7 -480 -10 l-477 -6 490 -2 c272 -1 484
-6 477 -11 -17 -10 40 -18 213 -28 72 -4 120 -9 108 -11 -22 -3 -33 -22 -13
-22 6 0 10 -7 10 -15 0 -13 -29 -15 -187 -17 l-188 -3 183 -2 182 -3 0 -28 c0
-15 11 -40 24 -56 20 -25 31 -30 83 -34 57 -4 61 -3 92 29 17 19 37 53 43 77
11 36 16 42 40 42 23 0 28 -5 34 -35 9 -50 54 -85 109 -85 56 0 83 11 118 46
23 23 28 35 25 68 l-2 41 209 -1 c186 0 213 -2 238 -18 38 -26 125 -18 145 13
8 11 23 21 33 21 23 0 23 1 6 -39 l-14 -32 -303 1 c-259 0 -301 -1 -291 -13 6
-8 35 -17 64 -21 28 -3 66 -8 82 -10 173 -21 373 -14 427 14 13 8 19 3 28 -24
17 -54 54 -81 108 -80 64 0 111 7 107 15 -3 3 5 24 16 45 14 28 18 49 14 74
-9 49 -40 104 -72 130 -15 12 -21 18 -13 14 8 -4 25 -16 38 -28 18 -16 48 -24
120 -33 62 -8 105 -19 121 -31 15 -10 34 -21 44 -25 9 -3 17 -11 17 -17 0 -6
-44 -10 -120 -10 -84 0 -120 -3 -120 -12 0 -8 32 -9 119 -5 118 7 120 6 127
-16 3 -12 17 -36 30 -53 13 -17 21 -33 19 -35 -7 -8 110 -9 120 -2 25 20 47
54 55 86 6 27 2 45 -16 83 -13 26 -21 51 -18 56 3 4 -20 8 -51 8 -42 0 -64 6
-93 25 -20 13 -57 28 -82 34 -80 17 -280 31 -466 31 -157 0 -183 2 -188 16 -3
9 -6 138 -6 287 0 255 -1 273 -19 284 -17 10 -18 28 -20 198 -1 103 1 223 5
266 l7 79 78 0 c44 0 87 4 97 9 18 10 379 54 447 55 22 0 77 -1 123 -2 l82 -2
0 -554 0 -553 31 -7 c17 -3 71 -6 120 -6 l89 0 1 518 c0 284 0 537 -1 563 l-1
45 101 -25 c100 -24 100 -25 69 -38 -17 -7 -55 -13 -85 -13 -29 0 -56 -5 -60
-11 -11 -18 1113 -5 1251 15 61 8 194 19 298 22 187 7 187 7 228 37 22 16 38
34 36 41 -2 6 -27 28 -56 48 -59 41 -101 43 -133 7 -9 -11 -19 -15 -22 -10 -5
8 -42 17 -111 25 -81 10 -131 19 -143 26 -15 8 84 92 158 134 l43 24 -63 66
-63 66 144 69 c226 108 404 158 526 148 63 -5 70 -8 103 -44 19 -22 40 -47 45
-57 9 -16 15 -17 55 -6 94 27 326 4 429 -41 24 -11 45 -18 46 -17 4 5 -238
381 -327 509 -113 161 -261 345 -276 341 -7 -1 -12 5 -12 13 0 8 -4 15 -9 15
-6 0 -8 -17 -5 -37 4 -36 4 -36 -11 10 -21 62 -42 64 -35 2 2 -15 -1 -17 -12
-7 -8 6 -18 8 -23 4 -4 -4 -5 7 -1 23 13 57 12 60 -17 63 -15 2 -25 8 -22 13
4 5 3 9 -2 9 -4 0 -19 -24 -31 -53 -13 -28 -31 -68 -40 -88 -10 -20 -30 -44
-45 -53 -16 -9 -25 -20 -22 -26 8 -13 -19 -40 -39 -40 -9 0 -16 -8 -16 -19 0
-12 -9 -21 -25 -25 -14 -4 -25 -11 -25 -16 0 -6 -11 -10 -25 -10 -19 0 -25 -5
-25 -22 0 -19 -3 -17 -19 12 -10 19 -16 39 -13 44 3 5 0 6 -6 2 -7 -4 -12 -1
-12 6 0 13 -39 69 -40 57 0 -4 7 -23 15 -42 23 -55 19 -56 -28 -4 -24 26 -46
44 -50 40 -4 -3 -7 1 -7 10 0 10 -4 17 -9 17 -5 0 -25 33 -46 73 -36 69 -121
197 -131 197 -2 0 16 -31 41 -68 27 -40 48 -85 51 -108 3 -21 8 -46 11 -54 60
-162 68 -214 33 -245 -17 -15 -17 -19 -5 -32 20 -19 19 -31 -2 -35 -9 -2 -21
-20 -27 -43 -11 -38 -14 -40 -54 -43 -23 -2 -42 -7 -42 -13 0 -5 -9 -9 -19 -9
-11 0 -21 -6 -23 -12 -7 -19 -168 -21 -175 -2 -3 8 -11 14 -18 14 -39 0 -172
239 -205 369 -12 45 -22 101 -23 125 -1 24 -4 44 -7 43 -3 -1 -32 27 -64 61
-86 90 -292 220 -351 222 -17 0 -18 2 -5 11 11 8 5 9 -24 5 -35 -5 -37 -4 -20
9 18 13 17 14 -13 15 -18 0 -56 9 -84 20 -28 12 -52 19 -53 18 -22 -53 -61
-60 -119 -23 -40 25 -35 20 26 -31 11 -9 42 -14 90 -14 116 -1 223 -24 312
-69 99 -50 218 -141 266 -204 34 -46 36 -51 27 -95 -4 -26 -7 -69 -4 -97 2
-29 -5 -83 -17 -132 -25 -103 -27 -103 -170 -30 -148 77 -382 159 -487 172
-26 3 0 -7 60 -24 209 -58 372 -128 515 -221 82 -53 118 -82 77 -61 -27 14
-42 7 -43 -22 -1 -20 -2 -20 -8 3 -7 24 -7 24 -14 -9 -10 -47 -9 -51 9 -51 14
0 14 -2 0 -22 -9 -12 -16 -32 -16 -45 0 -12 -7 -28 -15 -36 -8 -8 -12 -17 -9
-19 8 -8 -30 -112 -48 -132 -10 -11 -18 -27 -18 -37 0 -36 -26 -42 -77 -19
-141 64 -302 125 -310 117 -2 -3 13 -11 34 -17 102 -34 402 -193 420 -224 5
-8 3 -8 -8 0 -8 6 -35 23 -61 38 -34 19 -46 22 -42 11 4 -10 0 -15 -13 -15
-15 0 -23 -12 -33 -50 -7 -27 -19 -50 -26 -50 -7 0 -20 -22 -30 -50 -10 -27
-23 -50 -29 -50 -23 0 -65 -26 -71 -43 -6 -20 -47 -67 -58 -67 -11 0 -36 -27
-36 -38 0 -6 -13 -13 -30 -17 -16 -4 -30 -12 -30 -19 0 -6 -13 -19 -29 -29
-39 -23 -126 -22 -225 3 -43 11 -80 20 -82 20 -2 0 -4 250 -4 555 l0 555 23 0
c39 0 48 14 50 73 1 31 -2 59 -6 63 -10 10 -93 23 -154 23 -49 1 -53 3 -53 24
0 54 60 348 70 342 9 -6 118 20 169 41 47 19 52 31 16 40 -20 5 -23 9 -14 20
16 20 -54 7 -120 -22 -70 -32 -77 -24 -10 10 l53 26 -40 0 c-22 0 -49 -6 -59
-14 -14 -10 -24 -11 -36 -3 -11 7 -149 7 -441 1 l-424 -9 -41 -27 c-32 -21
-46 -40 -62 -84 -43 -113 -93 -519 -106 -854 -8 -188 -29 -420 -45 -498 -7
-29 -24 -67 -38 -84 -40 -47 -77 -58 -194 -56 l-103 1 105 7 c172 11 207 41
229 190 13 89 28 306 36 520 7 169 36 443 65 614 25 143 54 226 90 261 29 28
31 28 197 36 92 4 201 8 241 8 l72 1 -15 36 c-8 20 -15 46 -15 58 0 11 -10 37
-22 56 -12 19 -23 41 -24 48 -1 7 -11 25 -20 40 -18 26 -20 31 -23 51 -2 19
-81 114 -103 125 -13 6 -24 22 -26 34 -2 12 -8 22 -13 22 -5 0 -9 12 -9 26 0
14 -5 35 -11 46 -10 18 -9 20 5 15 31 -12 16 3 -24 23 -43 22 -186 47 -198 35
-4 -4 -2 -10 5 -12 7 -2 23 -13 37 -24 48 -38 25 -92 -45 -105 -19 -4 -43 -13
-54 -21 -11 -7 -29 -13 -42 -13 -12 0 -24 -4 -27 -9 -3 -4 -23 -11 -44 -15
-22 -3 -45 -13 -52 -21 -7 -8 -18 -15 -26 -15 -7 0 -39 -21 -71 -46 -149 -120
-296 -283 -517 -579 -54 -71 -112 -142 -130 -156 l-32 -27 -264 -5 c-146 -4
-271 -7 -278 -8 -7 -2 -10 -10 -6 -22 9 -28 -11 -36 -86 -38 -57 -2 -60 -3
-25 -8 26 -4 -18 -9 -125 -14 -91 -4 -182 -10 -203 -14 -32 -5 -36 -3 -31 11
5 14 -5 16 -82 16 -49 1 -109 5 -134 11 -90 20 -129 22 -145 9 -13 -11 -16
-11 -13 0 2 7 -3 15 -10 17 -7 3 -10 -1 -7 -10 5 -12 -36 -15 -257 -20 -145
-4 -361 -7 -480 -7 l-218 0 0 188 0 187 -27 1 c-16 0 -56 1 -90 2 l-63 2 25
56 c54 121 87 272 101 456 8 106 -4 338 -18 338 -7 0 -9 -22 -6 -57 3 -32 3
-48 1 -35 -3 14 -11 22 -24 22 -10 0 -19 5 -19 10 0 15 -317 13 -322 -1 -3 -8
-15 -9 -36 -4 -44 9 -63 55 -60 146 1 37 5 66 10 63 10 -6 9 4 -1 31 -6 15
-11 4 -20 -46 -6 -36 -11 -74 -11 -85 -1 -10 -18 33 -40 96 -22 63 -38 104
-35 90z m132 -332 c-3 -8 -6 -5 -6 6 -1 11 2 17 5 13 3 -3 4 -12 1 -19z m-327
-494 c0 -2 -9 0 -20 6 -11 6 -20 13 -20 16 0 2 9 0 20 -6 11 -6 20 -13 20 -16z
m3800 -282 c0 -38 3 -124 7 -190 l6 -122 -176 0 c-98 0 -177 3 -177 6 0 16
317 374 331 374 5 0 9 -31 9 -68z m2 -346 c5 -23 3 -23 -85 -30 -50 -3 -142
-6 -206 -6 l-116 1 27 23 c15 13 24 27 21 30 -4 3 75 6 174 6 l181 0 4 -24z
m-3114 -208 l632 -32 0 -473 0 -473 -527 -1 c-291 0 -583 -2 -651 -2 l-122 -2
0 508 c0 476 1 507 18 507 9 1 302 -14 650 -32z m3120 -153 c-2 -105 -7 -188
-13 -194 -5 -5 -61 -17 -123 -26 -62 -9 -173 -34 -245 -56 -224 -68 -353 -143
-397 -230 -20 -38 -28 -105 -11 -95 4 3 6 18 3 33 -2 16 -2 25 1 22 15 -13 28
-160 21 -236 -5 -64 -10 -83 -21 -83 -11 0 -14 7 -9 28 3 15 3 23 1 17 -3 -7
-250 -9 -720 -7 l-715 2 0 475 0 475 156 0 c164 0 948 23 1539 44 193 7 392
14 443 15 l94 1 -4 -185z m1243 -40 l-11 -40 5 49 c3 27 6 83 7 125 l2 76 3
-85 c2 -47 -1 -103 -6 -125z m-1404 -721 c-3 -3 -12 -4 -19 -1 -8 3 -5 6 6 6
11 1 17 -2 13 -5z m1333 -94 l0 -30 -79 0 -80 0 10 30 c11 29 12 30 80 30 l69
0 0 -30z m-170 -24 c0 -8 -7 -16 -15 -20 -12 -4 -13 -2 -2 14 14 24 17 25 17
6z m-5046 -61 c3 -9 3 -43 -1 -76 -6 -56 -8 -60 -27 -54 -19 7 -81 14 -256 32
l-54 5 104 45 c142 60 223 77 234 48z m4234 -55 l42 0 0 -45 c0 -25 5 -45 10
-45 7 0 10 -77 10 -225 -1 -188 -4 -225 -16 -225 -12 0 -14 -45 -14 -290 l0
-290 -29 0 -28 0 -7 163 c-4 89 -11 189 -16 222 -5 33 -11 101 -14 150 -5 120
-40 492 -53 564 l-6 34 39 -6 c21 -4 58 -7 82 -7z m-420 -615 c0 -22 -3 -18
-9 15 -4 25 -7 61 -7 80 1 29 2 26 8 -15 5 -27 8 -63 8 -80z m9 -87 c-2 -13
-4 -5 -4 17 -1 22 1 32 4 23 2 -10 2 -28 0 -40z m37 -313 l5 -110 -13 130 c-8
72 -16 159 -19 195 -5 57 -4 55 8 -20 7 -47 16 -134 19 -195z m-301 -165 c-18
-16 -33 -34 -33 -40 0 -5 -7 -10 -15 -10 -25 0 -17 17 22 49 48 40 69 40 26 1z
m1176 11 c10 -6 -1 -8 -30 -4 -24 3 -46 7 -48 9 -10 9 65 3 78 -5z m-1163 -87
c18 -14 18 -14 -6 -3 -31 14 -36 19 -24 19 6 0 19 -7 30 -16z m1213 -63 l-2
-26 -4 25 c-3 14 -14 36 -26 50 l-22 25 28 -24 c17 -16 27 -34 26 -50z m483
50 c4 -4 -11 -5 -33 -3 -28 3 -37 7 -28 13 14 8 47 3 61 -10z m-1698 -16 c25
-23 36 -77 18 -89 -4 -2 -6 10 -4 28 3 25 -2 39 -19 55 -29 27 -49 27 -85 -1
-26 -21 -26 -13 -1 20 16 20 62 14 91 -13z m1156 -30 c0 -9 -10 -15 -25 -15
-26 0 -29 7 -19 34 7 19 44 3 44 -19z m41 -68 l-24 -22 19 27 c10 14 21 24 23
22 3 -3 -6 -15 -18 -27z m-62 -44 c2 -2 0 -3 -6 -3 -6 0 -21 9 -34 21 l-24 20
30 -17 c17 -10 32 -19 34 -21z"/>
<path d="M15360 4625 c-7 -8 -16 -12 -21 -9 -5 3 -9 2 -8 -3 3 -20 -2 -27 -11
-13 -6 9 -10 10 -10 3 0 -24 18 -21 45 7 16 17 26 30 23 30 -3 0 -11 -7 -18
-15z"/>
<path d="M13683 4560 c0 -25 2 -35 4 -22 2 12 2 32 0 45 -2 12 -4 2 -4 -23z"/>
<path d="M4952 4480 c-19 -15 -28 -17 -44 -9 -14 7 -23 7 -34 -2 -11 -9 -14
-9 -14 2 0 9 -3 10 -8 4 -4 -6 -25 -12 -47 -14 -22 -2 -42 -7 -45 -11 -3 -4
-17 -6 -32 -5 l-28 3 0 -77 c0 -48 -5 -82 -12 -91 -7 -7 5 1 27 18 22 18 66
51 97 74 49 35 56 44 45 57 -10 14 -10 14 5 3 14 -11 24 -8 72 24 31 20 56 38
56 40 0 9 -17 2 -38 -16z"/>
<path d="M13646 4363 c-16 -70 -25 -128 -20 -130 5 -2 8 -28 7 -59 -1 -66 12
-61 28 11 13 57 27 282 18 296 -3 5 -18 -48 -33 -118z"/>
<path d="M7401 4464 c0 -11 3 -14 6 -6 3 7 2 16 -1 19 -3 4 -6 -2 -5 -13z"/>
<path d="M12576 4440 c-32 -22 -107 -83 -167 -136 -60 -53 -109 -93 -109 -90
0 4 -21 -18 -47 -48 -27 -30 -53 -53 -59 -51 -6 2 -9 -9 -6 -26 2 -16 7 -29
10 -29 11 0 154 112 216 171 83 77 230 238 224 244 -3 3 -30 -13 -62 -35z"/>
<path d="M17771 4444 c0 -11 3 -14 6 -6 3 7 2 16 -1 19 -3 4 -6 -2 -5 -13z"/>
<path d="M17782 4400 c0 -14 2 -19 5 -12 2 6 2 18 0 25 -3 6 -5 1 -5 -13z"/>
<path d="M13921 4354 c0 -11 3 -14 6 -6 3 7 2 16 -1 19 -3 4 -6 -2 -5 -13z"/>
<path d="M17791 4354 c0 -11 3 -14 6 -6 3 7 2 16 -1 19 -3 4 -6 -2 -5 -13z"/>
<path d="M6500 4338 c0 -19 2 -20 10 -8 13 19 13 30 0 30 -5 0 -10 -10 -10
-22z"/>
<path d="M4072 4325 c0 -16 2 -22 5 -12 2 9 2 23 0 30 -3 6 -5 -1 -5 -18z"/>
<path d="M16606 4330 c11 -42 24 -73 29 -68 3 3 -4 25 -15 49 -11 24 -17 33
-14 19z"/>
<path d="M17802 4310 c0 -14 2 -19 5 -12 2 6 2 18 0 25 -3 6 -5 1 -5 -13z"/>
<path d="M11614 4285 c-10 -8 -41 -15 -69 -16 -49 -2 -49 -3 -8 -6 49 -5 105
8 111 25 5 16 -10 15 -34 -3z"/>
<path d="M17811 4254 c0 -11 3 -14 6 -6 3 7 2 16 -1 19 -3 4 -6 -2 -5 -13z"/>
<path d="M1903 4210 c0 -30 2 -43 4 -27 2 15 2 39 0 55 -2 15 -4 2 -4 -28z"/>
<path d="M4636 4243 c-6 -14 -5 -15 5 -6 7 7 10 15 7 18 -3 3 -9 -2 -12 -12z"/>
<path d="M12694 4192 c-54 -38 -166 -119 -249 -181 -82 -61 -162 -114 -177
-117 -16 -4 -25 -11 -22 -19 11 -27 151 32 248 103 87 64 312 270 303 278 -2
2 -48 -27 -103 -64z"/>
<path d="M14235 4250 c-135 -26 -163 -34 -195 -58 -19 -15 -40 -28 -47 -29 -7
-2 -21 -5 -30 -6 -10 -2 -24 -15 -33 -29 -68 -115 -70 -119 -50 -113 11 4 38
8 59 10 21 2 85 25 141 50 162 73 279 107 443 130 54 7 56 11 11 18 -17 3 -45
12 -62 21 -33 17 -161 20 -237 6z"/>
<path d="M11525 4227 c-27 -5 -62 -9 -77 -10 -15 -1 -25 -4 -22 -8 2 -4 -8
-11 -23 -16 -23 -8 -13 -12 67 -24 136 -20 186 -17 242 13 l48 25 -43 11 c-64
16 -136 20 -192 9z"/>
<path d="M17822 4200 c0 -14 2 -19 5 -12 2 6 2 18 0 25 -3 6 -5 1 -5 -13z"/>
<path d="M11795 4174 c-15 -19 -25 -37 -23 -39 2 -2 24 13 48 35 38 33 42 39
24 40 -13 0 -32 -14 -49 -36z"/>
<path d="M14671 4206 c2 -2 31 -6 64 -9 36 -3 52 -2 40 3 -19 8 -113 14 -104
6z"/>
<path d="M4965 4169 c-22 -17 -41 -34 -43 -40 -2 -5 -10 -9 -18 -9 -8 0 -14
-7 -14 -16 0 -11 20 1 60 36 33 29 60 54 60 56 0 6 -2 5 -45 -27z"/>
<path d="M4564 4169 c-12 -11 -37 -22 -58 -23 -20 -2 -45 -11 -56 -21 -11 -10
-26 -15 -36 -11 -12 4 -15 2 -10 -9 3 -8 2 -14 -2 -13 -8 3 -72 -30 -72 -37 0
-3 15 1 33 9 17 8 64 25 102 38 50 16 78 32 98 55 32 37 32 44 1 12z"/>
<path d="M11880 4181 c0 -6 4 -13 10 -16 6 -3 7 1 4 9 -7 18 -14 21 -14 7z"/>
<path d="M14830 4176 c0 -2 7 -7 16 -10 8 -3 12 -2 9 4 -6 10 -25 14 -25 6z"/>
<path d="M13561 4079 c-16 -50 -27 -89 -23 -87 65 32 61 25 59 104 -1 41 -3
74 -4 74 0 0 -15 -41 -32 -91z"/>
<path d="M17833 4120 c0 -25 2 -35 4 -22 2 12 2 32 0 45 -2 12 -4 2 -4 -23z"/>
<path d="M4287 4110 c-3 -11 -3 -20 -1 -20 2 0 8 9 14 20 6 11 7 20 2 20 -6 0
-12 -9 -15 -20z"/>
<path d="M11710 4064 c-22 -20 -40 -39 -40 -43 0 -7 175 -4 226 5 18 2 37 11
44 19 11 13 4 15 -49 15 -59 0 -89 19 -33 21 21 1 19 3 -13 10 -73 15 -93 11
-135 -27z m110 8 c0 -4 -16 -6 -35 -4 -19 2 -35 6 -35 8 0 2 16 4 35 4 19 0
35 -4 35 -8z"/>
<path d="M11551 4068 c-52 -10 -75 -26 -101 -69 -15 -26 88 5 124 38 17 15 35
31 41 35 11 9 10 9 -64 -4z"/>
<path d="M13177 4073 c18 -2 50 -2 70 0 21 2 7 4 -32 4 -38 0 -55 -2 -38 -4z"/>
<path d="M770 4068 c0 -12 69 -83 74 -77 3 3 -12 23 -34 44 -22 22 -40 36 -40
33z"/>
<path d="M13118 4063 c7 -3 16 -2 19 1 4 3 -2 6 -13 5 -11 0 -14 -3 -6 -6z"/>
<path d="M11390 4050 c-12 -8 -11 -10 5 -9 11 1 31 5 45 9 24 8 24 8 -5 9 -16
0 -37 -4 -45 -9z"/>
<path d="M532 4020 c2 -35 -31 -98 -73 -144 -11 -11 -19 -25 -20 -30 0 -6 -23
-38 -50 -71 -27 -33 -62 -77 -77 -97 -17 -24 -35 -37 -50 -38 -13 0 -20 -4
-17 -10 3 -5 1 -10 -4 -10 -18 0 -13 29 29 175 22 77 42 163 45 190 6 48 5 47
-25 -35 -18 -47 -48 -140 -68 -208 -25 -87 -40 -121 -49 -118 -7 3 -13 1 -13
-4 0 -6 48 -10 118 -10 76 0 112 4 102 10 -11 7 -3 11 30 16 34 6 40 9 25 14
-62 23 268 79 463 80 45 0 82 2 82 5 0 16 -32 80 -56 111 -59 77 -159 124
-283 133 l-84 6 -13 35 -13 35 1 -35z"/>
<path d="M4285 4037 c-16 -7 -34 -17 -38 -24 -4 -7 -15 -13 -22 -13 -8 0 -15
-4 -15 -10 0 -5 -7 -7 -15 -4 -9 4 -19 -3 -26 -20 -7 -14 -16 -23 -20 -20 -4
2 -13 -5 -19 -16 -6 -12 -17 -19 -25 -17 -15 7 -57 -21 -50 -33 6 -10 -39 -40
-60 -40 -9 0 -13 -4 -10 -10 3 -5 1 -10 -4 -10 -6 0 -11 -6 -11 -13 0 -7 -10
-14 -22 -14 -13 -1 -24 -7 -26 -13 -2 -5 -12 -10 -21 -10 -22 0 -71 -47 -71
-67 0 -7 -15 -27 -34 -43 -19 -17 -37 -41 -40 -55 -4 -14 -11 -25 -16 -25 -6
0 -10 -6 -10 -14 0 -15 -21 -26 -51 -26 -10 0 -19 -6 -19 -12 0 -7 -22 -31
-50 -53 -27 -22 -49 -45 -50 -51 0 -6 -13 -17 -30 -24 -16 -7 -30 -19 -30 -26
0 -8 -7 -14 -15 -14 -20 0 -105 -89 -105 -110 0 -5 -8 -10 -17 -10 -28 -1 -54
-25 -47 -43 4 -11 -2 -20 -20 -28 -14 -7 -26 -16 -26 -21 0 -4 -7 -8 -16 -8
-14 0 -15 3 -3 18 7 9 -2 4 -20 -13 -30 -28 -33 -29 -45 -12 -7 9 -16 17 -18
17 -13 0 -104 -251 -109 -300 -2 -14 9 -45 23 -70 15 -25 32 -57 39 -73 l12
-27 38 70 c146 269 518 720 657 796 44 24 62 44 111 119 101 157 248 308 349
359 17 9 32 19 32 21 0 3 -1 5 -2 4 -2 -1 -16 -6 -33 -12z m-1110 -927 c3 -5
1 -10 -4 -10 -6 0 -11 5 -11 10 0 6 2 10 4 10 3 0 8 -4 11 -10z"/>
<path d="M13670 4039 c0 -5 5 -7 10 -4 6 3 10 8 10 11 0 2 -4 4 -10 4 -5 0
-10 -5 -10 -11z"/>
<path d="M11925 3941 c-22 -4 -50 -12 -61 -19 -25 -13 -114 -110 -114 -123 0
-4 21 1 48 12 26 11 65 28 87 37 22 9 67 31 100 48 l61 32 39 -32 c22 -17 74
-65 115 -106 41 -42 57 -55 35 -30 -22 25 -71 78 -110 118 -67 69 -71 72 -115
71 -25 -1 -63 -5 -85 -8z"/>
<path d="M4778 3913 c7 -3 16 -2 19 1 4 3 -2 6 -13 5 -11 0 -14 -3 -6 -6z"/>
<path d="M4745 3900 c3 -5 8 -10 11 -10 2 0 4 5 4 10 0 6 -5 10 -11 10 -5 0
-7 -4 -4 -10z"/>
<path d="M5091 3884 c0 -11 3 -14 6 -6 3 7 2 16 -1 19 -3 4 -6 -2 -5 -13z"/>
<path d="M4688 3874 c-16 -8 -28 -19 -28 -24 0 -6 -13 -10 -30 -10 -22 0 -30
-5 -31 -17 0 -10 -3 -13 -5 -8 -6 15 -74 6 -74 -10 0 -8 -8 -11 -20 -8 -11 3
-20 1 -20 -5 0 -5 -33 -12 -72 -15 -175 -14 -248 -26 -248 -40 0 -8 -4 -7 -12
1 -18 18 -38 15 -39 -5 0 -12 -2 -13 -6 -5 -3 8 -9 9 -16 4 -7 -5 -34 -17 -62
-27 -37 -13 -60 -30 -88 -66 -21 -27 -36 -49 -32 -49 3 0 22 7 42 15 64 27
192 56 276 62 64 5 101 14 167 43 165 72 229 104 224 112 -3 4 1 5 8 3 7 -3
38 10 68 30 54 34 52 49 -2 19z"/>
<path d="M1816 3827 c-9 -23 -16 -48 -16 -54 0 -7 -9 -17 -20 -23 -11 -6 -18
-15 -15 -21 4 -5 0 -9 -8 -9 -8 0 -18 -7 -21 -16 -4 -9 -9 -14 -12 -11 -3 3
-15 -4 -27 -16 -20 -20 -21 -20 -28 -1 -6 14 -8 10 -8 -17 -1 -30 3 -38 21
-42 27 -8 39 2 79 64 31 49 84 178 76 186 -2 2 -12 -16 -21 -40z"/>
<path d="M13348 3863 c18 -2 45 -2 60 0 15 2 0 4 -33 4 -33 0 -45 -2 -27 -4z"/>
<path d="M14645 3860 c-3 -5 -1 -10 4 -10 6 0 11 5 11 10 0 6 -2 10 -4 10 -3
0 -8 -4 -11 -10z"/>
<path d="M5082 3840 c0 -14 2 -19 5 -12 2 6 2 18 0 25 -3 6 -5 1 -5 -13z"/>
<path d="M11376 3810 c-3 -18 -6 -52 -6 -76 0 -44 0 -44 35 -44 21 0 35 5 35
13 0 18 -28 114 -29 102 -1 -5 -8 1 -15 14 l-13 23 -7 -32z"/>
<path d="M13127 3798 c-50 -22 -61 -38 -24 -38 22 1 85 45 77 54 -3 2 -27 -5
-53 -16z"/>
<path d="M5060 3774 c-1 -26 -41 -253 -51 -284 -20 -64 -59 -134 -99 -179
l-39 -44 -72 13 c-56 11 -74 11 -77 2 -2 -8 -26 -12 -63 -12 -46 0 -59 -3 -59
-15 0 -8 -9 -15 -20 -15 -11 0 -20 7 -20 15 0 18 -20 20 -20 3 0 -7 -10 7 -21
32 -20 43 -20 64 -4 104 8 17 7 17 -25 1 -18 -9 -29 -20 -24 -24 5 -3 10 -24
12 -46 2 -22 12 -71 24 -110 30 -106 31 -113 9 -70 -16 34 -20 36 -20 16 -1
-17 -4 -21 -13 -14 -19 15 -158 4 -158 -12 0 -7 -9 -15 -20 -18 -15 -4 -20 0
-20 14 0 15 -7 19 -35 19 -35 0 -50 -22 -22 -33 9 -4 9 -6 -1 -6 -8 -1 -16 8
-19 19 -3 11 -12 20 -19 20 -8 0 -14 4 -14 9 0 15 130 125 176 149 73 37 50
33 -48 -9 -50 -21 -125 -48 -167 -60 -42 -11 -85 -23 -96 -26 -50 -13 7 17 80
42 44 16 89 34 100 41 11 6 32 14 48 18 15 4 27 11 27 16 0 6 8 10 19 10 32 0
84 27 87 45 2 16 -4 17 -58 11 -34 -3 -87 -6 -119 -6 -52 0 -59 -2 -59 -20 0
-17 -7 -20 -44 -20 -24 0 -46 -5 -48 -11 -2 -6 -25 -11 -50 -11 -26 -1 -45 -5
-42 -10 3 -4 -9 -8 -26 -8 -18 0 -33 -6 -36 -15 -4 -9 -19 -15 -40 -15 -24 0
-34 -5 -34 -16 0 -20 -24 -44 -45 -44 -19 0 -45 -23 -45 -39 0 -6 -16 -11 -35
-11 -24 0 -35 5 -35 15 0 8 -9 15 -20 15 -13 0 -20 7 -20 20 0 11 5 20 10 20
15 0 12 30 -2 31 -7 0 -3 5 10 11 27 14 28 25 2 33 -23 7 -95 -45 -128 -91 -9
-14 -35 -45 -56 -70 -22 -24 -44 -53 -50 -63 -6 -11 -39 -55 -72 -98 -58 -75
-140 -199 -189 -288 -15 -26 -21 -51 -18 -70 3 -20 -4 -11 -20 26 -13 31 -38
77 -57 102 -30 42 -38 47 -84 53 -36 5 -59 15 -78 34 -31 31 -40 28 -55 -20
-6 -19 -11 -27 -12 -17 -1 20 -41 24 -41 3 0 -17 -38 -28 -106 -31 -90 -4
-134 -15 -135 -33 0 -14 -2 -14 -6 -2 -3 8 -12 18 -18 22 -12 8 -52 70 -104
165 -13 24 -26 41 -28 39 -3 -2 2 -15 10 -28 8 -12 17 -34 20 -48 9 -39 -29
-50 -187 -55 -114 -3 -136 -2 -136 10 0 8 -5 15 -10 15 -6 0 -20 16 -31 35
-25 42 -46 47 -24 5 16 -31 22 -76 6 -52 -6 11 -40 13 -150 10 -83 -2 -142 1
-144 6 -2 6 -6 2 -10 -7 -3 -9 -2 -17 4 -17 6 0 8 -3 5 -8 -2 -4 12 -38 32
-76 34 -64 41 -71 87 -87 28 -10 61 -20 75 -23 41 -9 199 -136 256 -205 29
-35 63 -86 76 -113 22 -46 24 -48 43 -33 19 16 19 16 -5 10 -22 -5 -23 -4 -7
5 10 7 25 9 33 6 8 -3 13 -2 10 3 -3 4 61 40 142 79 171 83 290 118 438 127
54 3 154 10 220 16 147 14 226 0 372 -63 l92 -40 118 76 c65 41 134 82 153 90
40 18 14 22 -40 6 -19 -5 -37 -8 -39 -5 -2 2 16 9 39 15 39 10 73 25 175 80
48 25 174 125 234 185 60 60 83 72 51 26 -12 -16 -21 -33 -21 -38 -1 -4 -25
-28 -55 -52 -30 -25 -50 -48 -44 -51 6 -4 4 -11 -6 -20 -8 -7 -15 -19 -15 -27
0 -11 -3 -11 -14 -1 -13 11 -13 15 2 26 19 15 8 16 -19 1 -11 -5 -17 -15 -13
-22 4 -7 4 -9 -1 -5 -5 5 -36 -7 -69 -26 -34 -18 -78 -39 -99 -46 -52 -16 -43
-20 23 -9 30 5 102 10 160 11 58 1 108 7 112 13 5 6 8 4 8 -5 0 -10 23 -20 74
-32 41 -9 104 -29 140 -43 l66 -26 29 20 c43 31 51 27 51 -27 0 -36 5 -54 19
-66 19 -18 21 -16 59 61 54 105 143 222 240 315 94 89 136 118 252 170 72 32
80 38 53 38 -18 0 -33 -4 -33 -10 0 -21 -26 -9 -53 26 -32 39 -35 30 31 104
23 26 30 46 12 35 -6 -4 -44 -3 -85 0 -54 5 -75 11 -75 21 0 17 -37 19 -43 2
-3 -10 -8 -9 -22 2 -14 11 -19 12 -22 3 -3 -7 -11 -13 -20 -13 -8 0 -33 -19
-55 -42 l-40 -43 33 43 c19 24 43 57 55 73 11 16 24 25 28 21 4 -4 6 -2 5 3
-2 6 11 40 29 77 26 53 38 100 58 229 14 89 23 164 19 167 -3 3 -5 1 -5 -4z
m-877 -561 c10 -10 -93 -42 -133 -42 -31 1 -26 4 35 24 79 26 89 28 98 18z
m-203 -18 c0 -2 -10 -9 -22 -15 -22 -11 -22 -10 -4 4 21 17 26 19 26 11z m850
-49 c0 -2 -8 -10 -17 -17 -16 -13 -17 -12 -4 4 13 16 21 21 21 13z m-640 -15
c0 -5 -11 -8 -25 -8 -13 0 -22 3 -19 8 3 5 14 9 25 9 10 0 19 -4 19 -9z m7
-27 c91 -19 153 -42 153 -58 0 -20 -15 -34 -43 -41 -17 -5 -27 -14 -27 -26 0
-16 -8 -19 -49 -19 -66 0 -111 -10 -111 -25 0 -15 -113 -29 -118 -15 -5 13
-82 13 -82 0 0 -6 -27 -10 -60 -10 -33 0 -60 4 -60 10 0 6 -9 10 -20 10 -11 0
-20 7 -20 15 0 8 -4 15 -10 15 -5 0 -10 9 -10 20 0 27 27 25 33 -2 4 -17 5
-15 5 7 -1 47 9 63 39 57 17 -3 29 1 34 11 5 8 24 19 42 22 17 4 35 12 38 16
7 12 81 27 142 28 26 1 82 -6 124 -15z m143 -124 c0 -5 -7 -10 -16 -10 -8 0
-12 5 -9 10 3 6 10 10 16 10 5 0 9 -4 9 -10z m-75 -217 c-4 -27 -11 -55 -16
-63 -9 -14 -5 21 6 57 2 6 -3 17 -11 23 -20 18 -17 30 7 30 20 0 21 -4 14 -47z"/>
<path d="M4038 3093 c7 -3 16 -2 19 1 4 3 -2 6 -13 5 -11 0 -14 -3 -6 -6z"/>
<path d="M4438 3703 c-32 -14 -58 -29 -58 -33 0 -4 26 -13 58 -20 31 -7 66
-17 77 -22 16 -9 18 -8 8 3 -7 7 -13 32 -13 56 0 24 -3 43 -7 42 -5 0 -34 -12
-65 -26z"/>
<path d="M12312 3673 c12 -12 24 -20 27 -17 3 3 -2 11 -11 18 -10 7 -16 15
-13 18 3 2 -2 5 -10 5 -12 0 -10 -6 7 -24z"/>
<path d="M181 3664 c0 -11 3 -14 6 -6 3 7 2 16 -1 19 -3 4 -6 -2 -5 -13z"/>
<path d="M17617 3645 c-24 -50 -20 -58 4 -12 11 22 19 41 17 43 -3 2 -12 -12
-21 -31z"/>
<path d="M3346 3606 c-6 -56 -17 -84 -49 -139 -23 -38 -49 -74 -58 -80 -9 -7
-19 -22 -23 -35 -4 -12 -16 -27 -27 -33 -11 -5 -27 -28 -35 -50 -9 -21 -21
-39 -28 -38 -25 3 -34 -2 -39 -21 -3 -12 -14 -20 -26 -20 -12 0 -21 -6 -21
-13 0 -13 -24 -28 -62 -41 -10 -3 -18 -14 -18 -25 0 -15 -9 -22 -35 -27 -19
-3 -35 -11 -35 -17 0 -6 -7 -2 -15 9 -14 18 -14 17 -15 -15 0 -30 -2 -32 -17
-21 -10 7 2 -5 27 -26 61 -52 121 -112 153 -154 26 -35 27 -35 27 -9 0 32 66
229 108 324 65 149 165 328 235 423 21 30 36 57 32 60 -4 4 -12 -1 -20 -11
-14 -20 -42 -14 -48 11 -2 10 -7 -14 -11 -52z"/>
<path d="M4585 3550 c-3 -5 3 -10 13 -10 15 0 19 -5 15 -20 -3 -11 0 -20 6
-20 15 0 14 33 -1 48 -15 15 -25 15 -33 2z"/>
<path d="M4585 3480 c-4 -6 1 -7 12 -3 16 6 17 5 3 -13 -14 -18 -14 -18 2 -5
10 7 15 17 12 22 -7 12 -21 11 -29 -1z"/>
<path d="M6798 3483 c7 -3 16 -2 19 1 4 3 -2 6 -13 5 -11 0 -14 -3 -6 -6z"/>
<path d="M424 3471 c-56 -25 -307 -412 -369 -571 l-24 -62 32 6 c17 4 56 10
84 13 29 3 51 9 49 12 -2 3 24 6 58 7 171 3 353 24 425 49 88 30 191 33 322
11 46 -8 122 -20 168 -26 70 -9 250 -57 323 -85 23 -9 -66 156 -133 247 -59
79 -156 171 -207 196 -20 10 -73 39 -117 65 -44 25 -109 55 -144 67 -165 55
-417 93 -467 71z"/>
<path d="M1208 3448 l23 -25 -33 -14 c-18 -8 -37 -14 -41 -14 -4 0 -11 -5 -15
-12 -4 -6 -20 -13 -36 -15 -26 -3 -20 -8 67 -65 117 -77 191 -157 267 -288 55
-95 61 -102 127 -140 90 -52 136 -86 108 -81 -11 3 -32 9 -46 14 -15 6 -30 8
-33 5 -3 -4 -6 -2 -6 3 0 5 -11 11 -25 12 -48 4 -24 -13 73 -51 53 -21 111
-45 128 -52 l31 -14 -71 135 c-39 74 -107 183 -151 242 -91 122 -266 303 -340
352 -43 29 -47 30 -27 8z"/>
<path d="M4548 3463 c7 -3 16 -2 19 1 4 3 -2 6 -13 5 -11 0 -14 -3 -6 -6z"/>
<path d="M4440 3450 c0 -5 -9 -10 -20 -10 -11 0 -20 -5 -20 -11 0 -6 9 -9 20
-6 25 6 26 -8 3 -22 -16 -9 -16 -10 -2 -11 9 0 22 7 29 15 7 8 20 15 29 16 10
0 7 4 -9 11 -24 10 -24 10 -5 18 19 8 19 9 -2 9 -13 1 -23 -3 -23 -9z"/>
<path d="M169 3413 c-13 -16 -12 -17 4 -4 9 7 17 15 17 17 0 8 -8 3 -21 -13z"/>
<path d="M184 3394 c-18 -14 -18 -15 4 -4 12 6 22 13 22 15 0 8 -5 6 -26 -11z"/>
<path d="M13840 3403 c0 -22 42 -73 59 -73 37 0 32 19 -14 50 -25 17 -45 27
-45 23z"/>
<path d="M8548 3393 c28 -2 76 -2 105 0 28 2 5 3 -53 3 -58 0 -81 -1 -52 -3z"/>
<path d="M115 3370 c-10 -11 -14 -20 -10 -20 5 0 -7 -17 -26 -37 l-34 -38 37
34 c21 19 36 37 33 40 -3 2 2 13 12 23 9 10 14 18 11 18 -3 0 -13 -9 -23 -20z"/>
<path d="M139 3363 c-13 -16 -12 -17 4 -4 9 7 17 15 17 17 0 8 -8 3 -21 -13z"/>
<path d="M4426 3354 c-11 -8 -15 -14 -8 -14 6 0 21 -17 32 -37 19 -36 20 -36
13 -8 -16 74 -16 75 -37 59z"/>
<path d="M49 3313 l-34 -38 38 34 c34 33 42 41 34 41 -2 0 -19 -17 -38 -37z"/>
<path d="M6848 3153 c18 -2 45 -2 60 0 15 2 0 4 -33 4 -33 0 -45 -2 -27 -4z"/>
<path d="M7013 3143 c20 -2 54 -2 75 0 20 2 3 4 -38 4 -41 0 -58 -2 -37 -4z"/>
<path d="M7220 3130 c52 -4 127 -8 165 -7 66 0 64 1 -25 7 -52 4 -126 8 -165
7 -66 0 -64 -1 25 -7z"/>
<path d="M7600 3110 c69 -4 235 -10 370 -13 185 -4 207 -3 90 2 -85 5 -252 11
-370 14 -155 4 -180 3 -90 -3z"/>
<path d="M12038 3113 c6 -2 18 -2 25 0 6 3 1 5 -13 5 -14 0 -19 -2 -12 -5z"/>
<path d="M31 2991 c-23 -44 -31 -71 -29 -99 3 -35 5 -32 36 52 18 49 31 93 29
99 -1 5 -18 -18 -36 -52z"/>
<path d="M5517 3004 c-137 -50 -335 -258 -481 -508 -84 -143 -99 -176 -81
-176 8 0 24 19 36 43 36 72 146 251 194 315 98 135 223 249 338 313 56 31 54
36 -6 13z"/>
<path d="M5943 2832 c-32 -27 -82 -75 -112 -108 -48 -52 -212 -268 -529 -696
-7 -10 -9 -18 -4 -18 5 0 45 48 88 108 299 407 438 583 528 670 53 51 95 92
92 92 -3 0 -31 -22 -63 -48z"/>
<path d="M0 2798 c0 -10 35 -28 107 -53 142 -50 200 -79 308 -151 50 -34 127
-84 173 -112 l83 -52 62 26 c96 41 103 43 115 35 7 -4 -22 -21 -69 -41 l-81
-35 24 -18 c13 -10 32 -26 43 -35 11 -9 21 -15 23 -14 1 1 2 0 2 -3 -1 -4 29
-36 65 -72 120 -121 243 -325 329 -545 42 -108 197 -600 195 -623 0 -5 -33 89
-73 210 -261 782 -446 1023 -981 1281 -136 65 -182 83 -172 67 13 -21 -21 -47
-69 -52 -43 -5 -49 -9 -48 -29 1 -18 -4 -22 -18 -19 -17 5 -18 -8 -18 -266 l0
-271 26 52 c33 67 101 142 179 197 98 70 193 107 179 70 -12 -31 21 -78 115
-166 79 -74 91 -89 69 -85 -20 3 -28 0 -28 -10 0 -9 -7 -22 -15 -30 -8 -9 -15
-27 -15 -40 0 -14 -7 -41 -15 -61 -8 -19 -15 -51 -15 -69 0 -19 -5 -34 -12
-34 -6 0 -8 -3 -5 -7 4 -3 1 -13 -7 -22 -18 -21 -25 -56 -15 -72 4 -7 4 -20
-1 -29 -6 -11 -4 -35 6 -65 8 -27 12 -50 10 -52 -4 -4 -108 294 -125 357 -22
82 -10 -19 14 -118 14 -57 23 -107 20 -112 -8 -12 6 -41 16 -34 5 3 6 -2 3
-10 -3 -9 -11 -13 -18 -9 -6 4 -6 0 2 -9 7 -9 9 -19 4 -22 -5 -3 -10 -43 -11
-88 -2 -84 -25 -168 -47 -168 -6 0 -16 -25 -23 -55 -10 -43 -17 -55 -32 -55
-10 0 -19 -5 -19 -12 0 -7 -12 -24 -27 -40 -40 -42 -36 -100 14 -215 22 -51
39 -93 37 -93 -14 0 -165 361 -229 545 -15 44 -29 82 -31 84 -2 2 -4 -150 -4
-339 l0 -343 50 5 c42 4 52 2 71 -19 26 -27 42 -29 59 -8 23 28 90 16 90 -16
0 -15 -7 -19 -34 -19 -127 0 -110 -34 22 -43 92 -6 92 -6 98 19 l7 25 31 -29
c17 -17 49 -38 71 -47 39 -17 39 -18 15 -25 -21 -7 -22 -8 -5 -9 11 -1 124 -6
250 -12 127 -6 246 -12 265 -14 19 -1 184 -3 367 -4 l332 -1 3 -23 c3 -19 11
-23 57 -29 29 -3 57 -11 60 -16 3 -6 52 -12 107 -14 l100 -3 -17 30 c-16 27
-27 72 -45 175 -4 19 -7 258 -9 530 -2 529 -16 816 -42 890 -22 61 -93 213
-98 209 -2 -2 17 -64 42 -137 34 -101 43 -142 39 -168 -6 -31 -10 -34 -57 -40
-28 -4 -56 -13 -64 -20 -9 -10 -40 -14 -99 -14 -58 0 -89 -4 -98 -14 -8 -7
-24 -17 -36 -20 -12 -4 -22 -14 -22 -22 0 -8 -4 -14 -10 -14 -5 0 -10 6 -10
14 0 7 -7 19 -15 26 -11 9 -8 -6 10 -53 55 -147 114 -437 120 -587 2 -58 2
-91 -1 -75 -63 392 -90 516 -152 693 -22 62 -55 138 -74 169 -52 87 -152 198
-231 257 -143 108 -514 278 -606 278 -59 0 -253 53 -311 85 -36 20 -64 26
-137 31 -78 4 -93 2 -93 -10z m778 -855 c-15 -2 -42 -2 -60 0 -18 2 -6 4 27 4
33 0 48 -2 33 -4z m420 -388 c39 -99 88 -239 110 -310 50 -162 106 -409 98
-430 -5 -13 -38 -15 -236 -15 -152 0 -229 3 -225 10 3 5 41 10 83 10 42 0 141
3 220 7 162 7 155 2 130 101 l-11 46 -12 -39 -12 -40 -8 50 c-5 31 -4 60 3 78
8 22 6 44 -9 104 -18 67 -140 417 -143 411 -1 -2 1 -118 5 -258 6 -208 11
-269 28 -334 11 -43 21 -79 23 -81 2 -1 12 -7 23 -13 17 -10 11 -11 -35 -12
-30 0 -104 -3 -164 -7 l-108 -6 58 78 59 77 63 -6 c56 -5 63 -3 60 12 -2 13
-15 18 -56 20 -56 3 -57 4 -42 32 8 15 17 18 45 13 28 -4 35 -2 35 11 0 11 -9
16 -26 16 -19 0 -24 4 -20 18 35 126 40 165 40 307 0 156 -3 171 -69 340 -7
18 -6 18 7 5 8 -8 47 -96 86 -195z m419 -357 c-2 -13 -4 -3 -4 22 0 25 2 35 4
23 2 -13 2 -33 0 -45z m10 -125 c-2 -16 -4 -5 -4 22 0 28 2 40 4 28 2 -13 2
-35 0 -50z m-240 -5 c-3 -8 -6 -5 -6 6 -1 11 2 17 5 13 3 -3 4 -12 1 -19z m30
-120 c-3 -8 -6 -5 -6 6 -1 11 2 17 5 13 3 -3 4 -12 1 -19z m490 -40 c-3 -7 -5
-2 -5 12 0 14 2 19 5 13 2 -7 2 -19 0 -25z m-1612 -24 c9 -15 12 -23 6 -20
-11 7 -35 46 -28 46 3 0 12 -12 22 -26z m1595 -51 c-11 -17 -11 -17 -6 0 3 10
7 26 7 35 1 15 2 15 6 0 2 -10 -1 -25 -7 -35z m-453 15 c-3 -8 -6 -5 -6 6 -1
11 2 17 5 13 3 -3 4 -12 1 -19z m-7 -90 c0 -5 -9 -4 -20 2 -11 6 -20 12 -20
14 0 2 9 2 20 -1 11 -3 20 -9 20 -15z m503 -105 c-7 -2 -19 -2 -25 0 -7 3 -2
5 12 5 14 0 19 -2 13 -5z"/>
<path d="M12028 2583 c7 -3 16 -2 19 1 4 3 -2 6 -13 5 -11 0 -14 -3 -6 -6z"/>
<path d="M12098 2563 c7 -3 16 -2 19 1 4 3 -2 6 -13 5 -11 0 -14 -3 -6 -6z"/>
<path d="M4445 2520 c-4 -6 -11 -8 -16 -5 -5 4 -9 1 -9 -5 0 -6 -5 -8 -12 -4
-7 4 -8 3 -4 -4 5 -8 -1 -12 -17 -12 -13 0 -51 -9 -83 -20 -33 -10 -98 -22
-145 -26 -46 -4 -91 -11 -99 -16 -10 -6 5 -7 40 -3 30 4 103 12 161 19 87 10
114 18 153 42 25 16 46 32 46 37 0 10 -8 9 -15 -3z"/>
<path d="M3495 2440 c104 -52 238 -153 351 -265 95 -95 233 -272 279 -358 15
-29 36 -59 46 -67 24 -21 47 -106 41 -157 -4 -38 -7 -43 -28 -43 -14 0 -36 7
-49 16 -15 10 -34 14 -52 10 -16 -4 -51 -7 -78 -8 l-49 -1 27 -19 c15 -11 27
-24 27 -30 0 -47 146 -79 208 -44 51 28 80 115 49 148 -14 14 -67 130 -67 145
0 18 -51 107 -86 149 -18 23 -30 44 -27 48 4 3 -1 6 -11 6 -9 0 -15 4 -12 9 3
4 -7 20 -22 34 -158 152 -274 254 -360 319 -42 32 -83 63 -90 69 -16 13 -157
79 -169 79 -4 0 28 -18 72 -40z"/>
<path d="M3940 2413 c-37 -5 -111 -25 -108 -29 2 -1 50 6 108 16 86 15 86 27
0 13z"/>
<path d="M14248 2403 c6 -2 18 -2 25 0 6 3 1 5 -13 5 -14 0 -19 -2 -12 -5z"/>
<path d="M14313 2393 c9 -2 23 -2 30 0 6 3 -1 5 -18 5 -16 0 -22 -2 -12 -5z"/>
<path d="M3797 2376 c-4 -10 -1 -13 8 -9 8 3 12 9 9 14 -7 12 -11 11 -17 -5z"/>
<path d="M4410 2371 c0 -6 19 -12 43 -14 l42 -4 -43 -1 c-24 -1 -41 -5 -39 -9
3 -5 -18 -6 -46 -4 -48 3 -145 -8 -247 -29 -25 -5 -78 -14 -117 -20 -40 -7
-73 -16 -73 -22 0 -6 -14 -8 -31 -6 l-31 5 49 -49 c27 -27 58 -50 69 -50 17
-1 339 99 582 181 l83 28 -121 2 c-71 1 -120 -3 -120 -8z"/>
<path d="M4675 2360 c27 -12 43 -12 25 0 -8 5 -22 9 -30 9 -10 0 -8 -3 5 -9z"/>
<path d="M4658 2343 c7 -3 16 -2 19 1 4 3 -2 6 -13 5 -11 0 -14 -3 -6 -6z"/>
<path d="M17760 2296 c0 -2 8 -10 18 -17 15 -13 16 -12 3 4 -13 16 -21 21 -21
13z"/>
<path d="M4560 2260 c0 -6 23 -9 53 -9 44 1 48 2 22 9 -44 11 -75 11 -75 0z"/>
<path d="M2175 2245 c21 -91 27 -126 29 -166 2 -42 0 -46 -18 -41 -12 2 13
-17 54 -44 129 -83 262 -185 337 -256 l71 -70 74 40 c118 65 334 134 504 162
62 10 73 15 88 41 23 39 69 62 117 57 66 -6 37 15 -47 34 -70 17 -133 19 -536
21 -354 2 -458 5 -458 14 0 7 -10 42 -21 77 -14 43 -27 65 -38 65 -9 1 -35 4
-58 7 -30 4 -43 2 -43 -6 0 -21 -22 2 -41 44 -10 22 -17 32 -14 21z"/>
<path d="M17820 2235 c13 -14 26 -25 28 -25 3 0 -5 11 -18 25 -13 14 -26 25
-28 25 -3 0 5 -11 18 -25z"/>
<path d="M2310 2216 c0 -2 7 -9 15 -16 9 -7 15 -8 15 -2 0 5 -7 12 -15 16 -8
3 -15 4 -15 2z"/>
<path d="M4506 2195 c-8 -8 -19 -15 -24 -15 -5 0 -17 -9 -26 -19 -13 -14 -26
-18 -50 -14 -25 4 -33 1 -33 -10 0 -10 6 -13 16 -9 13 5 14 4 1 -10 -8 -8 -22
-13 -32 -10 -10 2 -35 -5 -57 -16 -24 -13 -48 -18 -63 -14 l-23 6 25 7 25 7
-27 1 c-16 1 -28 -3 -28 -7 0 -14 -103 -31 -124 -20 -15 8 -16 12 -5 19 9 6
10 9 2 9 -24 0 -21 -17 7 -49 17 -18 30 -34 30 -37 0 -3 23 -34 52 -69 l52
-65 66 0 c209 0 398 -53 559 -157 78 -51 224 -163 298 -229 59 -54 221 -246
193 -229 -11 6 -10 3 3 -12 9 -11 17 -24 17 -30 0 -5 10 -18 22 -29 19 -15 20
-16 9 -1 -7 9 -11 17 -8 17 3 0 16 -15 28 -32 19 -27 20 -30 4 -18 -11 9 -6
-3 13 -32 18 -26 42 -54 53 -61 18 -13 -35 -15 -423 -22 -244 -3 -524 -5 -623
-3 -165 3 -158 4 90 7 149 2 333 7 410 10 95 5 -21 8 -362 9 -277 1 -503 -1
-503 -5 0 -5 15 -24 32 -43 l32 -35 116 1 c336 2 1343 18 1328 22 -10 2 -18 7
-18 12 0 5 -19 11 -42 13 -24 2 4 5 62 7 62 2 85 5 56 7 l-49 4 7 128 c7 133
3 170 -36 286 -61 181 -148 314 -306 472 -41 40 -82 75 -93 78 -10 4 -19 10
-19 15 0 4 -21 21 -47 36 -27 15 -50 31 -53 35 -13 20 -168 81 -237 95 -103
19 -277 19 -297 -1z"/>
<path d="M17867 2178 c11 -13 27 -34 37 -48 17 -25 17 -25 13 -2 -2 13 -16 34
-32 48 -35 30 -45 31 -18 2z"/>
<path d="M312 2025 c0 -16 2 -22 5 -12 2 9 2 23 0 30 -3 6 -5 -1 -5 -18z"/>
<path d="M3350 1919 c0 -5 5 -7 10 -4 6 3 10 8 10 11 0 2 -4 4 -10 4 -5 0 -10
-5 -10 -11z"/>
<path d="M3327 1907 c-5 -14 0 -17 39 -17 24 0 60 -7 79 -14 19 -8 35 -13 35
-10 0 11 -71 34 -104 34 -19 0 -36 5 -38 12 -3 7 -7 6 -11 -5z"/>
<path d="M17796 1875 c8 -37 14 -45 14 -19 0 10 -5 26 -10 34 -8 11 -9 7 -4
-15z"/>
<path d="M9672 1840 c0 -14 2 -19 5 -12 2 6 2 18 0 25 -3 6 -5 1 -5 -13z"/>
<path d="M3883 1803 c9 -2 25 -2 35 0 9 3 1 5 -18 5 -19 0 -27 -2 -17 -5z"/>
<path d="M17821 1774 c0 -11 3 -14 6 -6 3 7 2 16 -1 19 -3 4 -6 -2 -5 -13z"/>
<path d="M2043 1740 c-9 -22 -19 -37 -24 -35 -4 3 -10 -4 -14 -14 -3 -11 -15
-23 -26 -26 -17 -6 -19 -15 -18 -83 1 -62 2 -71 10 -47 5 17 6 37 3 45 -3 8
-2 11 2 7 4 -4 18 16 30 45 12 29 31 74 42 101 12 26 19 47 16 47 -3 0 -13
-18 -21 -40z"/>
<path d="M9682 1750 c0 -19 2 -27 5 -17 2 9 2 25 0 35 -3 9 -5 1 -5 -18z"/>
<path d="M2411 1730 c14 -31 19 -36 19 -24 0 6 -7 19 -16 30 -14 18 -14 18 -3
-6z"/>
<path d="M17840 1750 c-4 -7 -8 -200 -4 -200 12 0 84 33 84 39 0 3 -9 12 -20
19 -11 7 -20 21 -20 32 0 11 -4 20 -8 20 -5 0 -13 21 -19 48 -6 26 -12 45 -13
42z"/>
<path d="M2840 1730 c0 -5 -6 -7 -13 -5 -15 6 -160 -62 -155 -73 2 -4 20 -36
40 -72 20 -36 48 -99 61 -141 21 -65 24 -88 20 -165 -3 -49 -9 -90 -14 -92 -5
-2 -9 -19 -9 -38 0 -19 -4 -34 -9 -34 -5 0 -12 -13 -16 -29 -9 -41 -28 -54
-67 -46 -38 9 -56 25 -50 44 2 7 -1 17 -8 21 -6 4 -16 43 -21 86 -11 93 -17
112 -19 64 -1 -21 -13 19 -30 100 -28 135 -49 202 -89 293 -26 55 -39 64 -15
10 52 -122 92 -284 114 -463 16 -132 15 -139 -20 -151 -16 -6 -30 -17 -30 -24
0 -9 -18 -16 -46 -21 -42 -6 -94 -41 -94 -63 0 -5 -13 -11 -30 -14 -16 -4 -30
-13 -30 -21 0 -7 -11 -17 -25 -20 -14 -4 -25 -12 -25 -20 0 -7 -13 -16 -30
-19 -19 -4 -28 -11 -25 -19 3 -7 -22 -40 -54 -72 -33 -33 -58 -63 -55 -68 3
-4 -7 -20 -21 -35 -50 -53 -50 -61 -3 -74 24 -6 56 -15 71 -20 16 -5 59 -12
95 -16 l67 -8 -85 -6 c-47 -4 -118 -7 -159 -8 -41 -1 -71 -4 -67 -9 4 -4 364
-7 799 -7 436 0 956 -4 1157 -8 241 -6 360 -5 351 1 -23 16 -192 27 -201 13
-6 -11 -54 98 -55 124 0 6 -4 13 -10 17 -20 15 4 14 98 -1 71 -12 102 -22 108
-34 17 -30 29 -18 29 28 l0 45 168 3 167 3 -172 2 -173 2 0 30 0 30 68 0 c37
0 126 -4 197 -9 192 -14 472 -22 405 -11 -65 10 -458 30 -589 30 -54 0 -91 4
-91 10 0 6 40 11 98 11 53 1 87 4 75 6 -13 2 -23 9 -23 15 0 7 -25 9 -74 6
-59 -4 -73 -2 -69 9 3 7 -1 13 -8 13 -9 0 -10 3 -4 8 18 13 17 35 0 28 -9 -3
-19 -6 -21 -6 -2 0 -4 -24 -4 -52 l-1 -53 -37 69 c-73 138 -221 261 -374 312
-77 25 -93 39 -62 51 13 5 13 7 2 14 -10 7 -9 9 5 9 30 0 168 -49 230 -82 l58
-31 317 8 c174 4 450 11 612 15 257 5 271 7 113 8 -100 1 -188 5 -196 8 -11 4
-2 18 34 54 41 41 49 55 49 85 0 46 -13 72 -58 112 -32 30 -177 108 -212 115
-8 2 -18 7 -22 13 -4 5 -23 9 -42 8 -20 -1 -34 2 -32 5 2 4 -9 8 -25 9 -55 4
-68 7 -63 15 3 4 4 8 2 8 -2 0 -18 4 -35 9 l-32 9 48 -68 c26 -38 62 -81 79
-95 50 -42 38 -45 -33 -9 -67 34 -110 42 -251 46 -63 2 -78 0 -65 -9 19 -13 3
-14 -126 -6 -60 3 -80 8 -77 17 3 8 -17 19 -58 30 -35 9 -76 22 -93 28 -16 6
-67 14 -113 19 -78 8 -131 29 -154 63 -6 9 -9 -1 -23 -69 -10 -45 -97 -115
-145 -115 -12 0 -32 -7 -45 -16 -14 -9 -31 -14 -39 -11 -8 3 -20 -1 -26 -9
-16 -18 -170 -9 -215 14 -37 18 -66 43 -60 51 2 4 -38 45 -89 91 -56 51 -102
102 -115 129 -21 41 -21 44 -5 62 10 11 12 19 6 19 -7 0 -12 -4 -12 -10z
m1389 -334 c-15 -13 -49 -25 -49 -17 0 5 8 12 18 14 24 6 36 8 31 3z m46 -6
c8 -13 -5 -13 -25 0 -13 8 -13 10 2 10 9 0 20 -4 23 -10z m42 -6 c-3 -3 -12
-4 -19 -1 -8 3 -5 6 6 6 11 1 17 -2 13 -5z m-656 -196 c19 -6 47 -23 63 -37
59 -54 233 -301 210 -301 -3 0 2 -7 10 -16 9 -8 14 -19 11 -24 -3 -5 -1 -10 5
-12 5 -1 7 -13 4 -25 -7 -27 -47 -31 -70 -8 -9 8 -32 15 -52 15 -39 0 -72 9
-194 51 -18 6 -68 28 -110 47 -64 30 -78 40 -78 59 0 16 -6 23 -20 23 -13 0
-20 7 -20 20 0 13 -7 20 -20 20 -16 0 -20 7 -20 33 0 25 -6 36 -22 44 l-22 9
22 22 c14 14 22 34 22 57 0 34 14 48 22 23 3 -9 10 -7 23 6 17 17 29 18 111
12 50 -3 107 -11 125 -18z m-1074 -35 c-3 -10 -5 -4 -5 12 0 17 2 24 5 18 2
-7 2 -21 0 -30z m2201 -20 c-32 -2 -84 -2 -115 0 -32 2 -6 3 57 3 63 0 89 -1
58 -3z m-396 -10 c-40 -2 -103 -2 -140 0 -37 2 -4 3 73 3 77 0 107 -2 67 -3z
m-1267 -302 c22 -4 -34 -5 -125 -3 -91 2 -172 5 -180 6 -32 7 267 4 305 -3z
m-122 -18 c-34 -2 -93 -2 -130 0 -37 2 -9 3 62 3 72 0 102 -1 68 -3z m-53 -23
c-97 -11 -150 -11 -150 0 0 6 41 9 108 8 101 -1 104 -1 42 -8z m147 -17 c-20
-2 -52 -2 -70 0 -17 2 0 4 38 4 39 0 53 -2 32 -4z m896 -23 c3 -11 2 -20 -3
-20 -4 0 -10 11 -12 25 -6 29 7 25 15 -5z m20 -60 c3 -11 1 -18 -4 -14 -5 3
-9 12 -9 20 0 20 7 17 13 -6z m-563 -6 c456 -6 435 -2 550 -110 l64 -61 -49 9
c-47 9 -598 24 -1055 28 -113 1 -199 4 -192 7 6 2 10 9 6 14 -7 12 -30 11 406
18 l385 7 -325 3 c-179 1 -334 6 -345 10 -32 13 150 22 590 29 l400 7 -520 8
c-303 5 -524 12 -529 18 -6 5 12 10 50 11 l59 2 -65 7 c-45 4 -28 6 55 3 66
-2 298 -6 515 -10z"/>
<path d="M4360 1703 c0 -13 66 -83 77 -83 8 0 11 5 8 10 -18 30 224 -33 421
-109 163 -63 239 -103 378 -198 44 -30 75 -48 69 -41 -6 7 -50 40 -98 73 -48
33 -101 75 -118 93 -17 18 -35 31 -41 29 -6 -2 -32 6 -57 19 -26 13 -49 20
-53 17 -3 -4 -6 -1 -6 5 0 7 -6 12 -13 12 -8 0 -40 13 -73 29 -144 72 -278
114 -396 126 -38 4 -68 11 -68 14 0 4 -7 8 -15 8 -8 0 -15 -2 -15 -4z"/>
<path d="M13459 1493 l-24 -28 28 24 c15 14 27 26 27 28 0 8 -8 1 -31 -24z"/>
<path d="M9741 1264 c0 -11 3 -14 6 -6 3 7 2 16 -1 19 -3 4 -6 -2 -5 -13z"/>
<path d="M5098 1213 c7 -3 16 -2 19 1 4 3 -2 6 -13 5 -11 0 -14 -3 -6 -6z"/>
<path d="M5260 1209 c0 -5 5 -7 10 -4 6 3 10 8 10 11 0 2 -4 4 -10 4 -5 0 -10
-5 -10 -11z"/>
<path d="M9751 1194 c0 -11 3 -14 6 -6 3 7 2 16 -1 19 -3 4 -6 -2 -5 -13z"/>
<path d="M13220 1130 c-6 -11 -8 -20 -6 -20 3 0 10 9 16 20 6 11 8 20 6 20 -3
0 -10 -9 -16 -20z"/>
<path d="M5933 1023 c26 -2 67 -2 90 0 23 2 2 3 -48 3 -49 0 -68 -1 -42 -3z"/>
<path d="M5733 1013 c9 -2 25 -2 35 0 9 3 1 5 -18 5 -19 0 -27 -2 -17 -5z"/>
<path d="M4353 943 c15 -2 39 -2 55 0 15 2 2 4 -28 4 -30 0 -43 -2 -27 -4z"/>
<path d="M8327 503 c18 -2 50 -2 70 0 21 2 7 4 -32 4 -38 0 -55 -2 -38 -4z"/>
<path d="M8518 493 c6 -2 18 -2 25 0 6 3 1 5 -13 5 -14 0 -19 -2 -12 -5z"/>
<path d="M10372 383 c37 -2 100 -2 140 0 40 1 10 3 -67 3 -77 0 -110 -1 -73
-3z"/>
<path d="M10703 383 c15 -2 37 -2 50 0 12 2 0 4 -28 4 -27 0 -38 -2 -22 -4z"/>
</g>
</svg>
