<svg xmlns="http://www.w3.org/2000/svg" version="1.0" width="2000.000000pt" height="2000.000000pt" viewBox="0 0 2000.000000 2000.000000" preserveAspectRatio="xMidYMid meet">

<g transform="translate(0.000000,2000.000000) scale(0.100000,-0.100000)" fill="#ffa501" stroke="none">
<path d="M9419 19985 c-1833 -108 -3415 -634 -4934 -1641 -580 -384 -1028 -748 -1514 -1228 -792 -783 -1444 -1681 -1941 -2675 -334 -670 -555 -1266 -739 -1997 -388 -1544 -388 -3335 0 -4889 185 -740 414 -1357 759 -2040 412 -819 934 -1573 1566 -2265 159 -174 503 -517 669 -667 686 -618 1494 -1166 2320 -1573 372 -183 658 -307 970 -420 1439 -521 2981 -696 4600 -524 437 46 831 118 1310 239 987 249 1856 617 2745 1163 1143 702 2163 1658 2942 2757 517 730 947 1547 1238 2350 172 475 321 1021 414 1515 205 1088 229 2275 70 3400 -82 581 -234 1210 -434 1795 -300 877 -793 1810 -1383 2618 -843 1154 -1891 2089 -3157 2817 -640 368 -1395 687 -2100 889 -174 49 -560 147 -675 170 -33 7 -78 16 -100 21 -37 8 -94 19 -205 41 -203 39 -539 84 -860 114 -462 44 -1108 56 -1561 30z m808 -3284 c92 -27 168 -60 240 -107 72 -46 6024 -5990 6088 -6079 143 -200 195 -439 144 -670 -30 -139 -78 -247 -154 -344 -74 -95 -1314 -1324 -1378 -1365 -73 -47 -149 -81 -245 -108 -117 -34 -314 -31 -435 6 -97 29 -143 50 -227 104 -35 22 -525 504 -1322 1301 -698 696 -1268 1261 -1268 1256 0 -6 -1 -1502 -2 -3325 l-3 -3315 -22 -80 c-13 -44 -45 -125 -72 -180 -82 -165 -200 -283 -366 -365 -182 -91 -100 -85 -1205 -85 -1088 0 -1021 -4 -1179 71 -236 111 -400 315 -468 581 -17 64 -18 256 -18 3380 0 2173 -3 3313 -10 3313 -5 0 -581 -571 -1280 -1268 -1243 -1242 -1272 -1270 -1350 -1310 -281 -143 -615 -132 -865 30 -46 29 -248 223 -674 647 -334 333 -637 640 -673 681 -128 149 -195 331 -197 535 -1 185 46 344 144 492 38 56 5967 5993 6050 6057 105 82 239 142 372 165 86 16 292 6 375 -18z" fill="#ffa501"/>
</g>
</svg>